<svg width="1920" height="974" viewBox="0 0 1920 974" fill="none" xmlns="http://www.w3.org/2000/svg">
    <g opacity="0.49">
        <path d="M1440.12 733C1440.12 865.549 1547.57 973 1680.12 973C1812.67 973 1920.12 865.549 1920.12 733C1920.12 600.452 1812.67 493 1680.12 493C1547.57 493 1440.12 600.452 1440.12 733Z" stroke="#03786B" stroke-width="2" stroke-miterlimit="10" stroke-linecap="square" stroke-linejoin="bevel"/>
        <path d="M480.119 493L240.119 493C107.581 493 0.119065 600.439 0.119059 733C0.119053 865.539 107.581 973 240.119 973C372.681 973 480.119 865.539 480.119 733L480.119 493Z" stroke="#03786B" stroke-width="2" stroke-miterlimit="10" stroke-linecap="square" stroke-linejoin="bevel"/>
        <path d="M480.119 733C480.119 865.549 587.571 973 720.119 973C852.667 973 960.119 865.549 960.119 733C960.119 600.452 852.667 493 720.119 493C587.571 493 480.119 600.452 480.119 733Z" stroke="#03786B" stroke-width="2" stroke-miterlimit="10" stroke-linecap="square" stroke-linejoin="bevel"/>
        <path d="M960.119 733C960.119 865.549 1067.57 973 1200.12 973C1332.67 973 1440.12 865.549 1440.12 733C1440.12 600.452 1332.67 493 1200.12 493C1067.57 493 960.119 600.452 960.119 733Z" stroke="#03786B" stroke-width="2" stroke-miterlimit="10" stroke-linecap="square" stroke-linejoin="bevel"/>
        <path d="M948.466 658.959L794.16 504.653" stroke="#03786B" stroke-width="2" stroke-miterlimit="10" stroke-linecap="square" stroke-linejoin="bevel"/>
        <path d="M957.904 700.49L752.629 495.215" stroke="#03786B" stroke-width="2" stroke-miterlimit="10" stroke-linecap="square" stroke-linejoin="bevel"/>
        <path d="M960.096 734.772L718.348 493.024" stroke="#03786B" stroke-width="2" stroke-miterlimit="10" stroke-linecap="square" stroke-linejoin="bevel"/>
        <path d="M958.021 764.766L688.354 495.098" stroke="#03786B" stroke-width="2" stroke-miterlimit="10" stroke-linecap="square" stroke-linejoin="bevel"/>
        <path d="M952.872 791.684L661.437 500.249" stroke="#03786B" stroke-width="2" stroke-miterlimit="10" stroke-linecap="square" stroke-linejoin="bevel"/>
        <path d="M945.297 816.178L636.942 507.823" stroke="#03786B" stroke-width="2" stroke-miterlimit="10" stroke-linecap="square" stroke-linejoin="bevel"/>
        <path d="M935.671 838.644L614.498 517.471" stroke="#03786B" stroke-width="2" stroke-miterlimit="10" stroke-linecap="square" stroke-linejoin="bevel"/>
        <path d="M924.229 859.293L593.826 528.891" stroke="#03786B" stroke-width="2" stroke-miterlimit="10" stroke-linecap="square" stroke-linejoin="bevel"/>
        <path d="M911.154 878.287L574.833 541.965" stroke="#03786B" stroke-width="2" stroke-miterlimit="10" stroke-linecap="square" stroke-linejoin="bevel"/>
        <path d="M896.519 895.743L557.377 556.601" stroke="#03786B" stroke-width="2" stroke-miterlimit="10" stroke-linecap="square" stroke-linejoin="bevel"/>
        <path d="M880.367 911.661L541.459 572.752" stroke="#03786B" stroke-width="2" stroke-miterlimit="10" stroke-linecap="square" stroke-linejoin="bevel"/>
        <path d="M862.701 926.063L527.055 590.417" stroke="#03786B" stroke-width="2" stroke-miterlimit="10" stroke-linecap="square" stroke-linejoin="bevel"/>
        <path d="M843.451 938.905L514.214 609.668" stroke="#03786B" stroke-width="2" stroke-miterlimit="10" stroke-linecap="square" stroke-linejoin="bevel"/>
        <path d="M822.546 950.091L503.028 630.573" stroke="#03786B" stroke-width="2" stroke-miterlimit="10" stroke-linecap="square" stroke-linejoin="bevel"/>
        <path d="M799.823 959.437L493.682 653.296" stroke="#03786B" stroke-width="2" stroke-miterlimit="10" stroke-linecap="square" stroke-linejoin="bevel"/>
        <path d="M774.98 966.685L486.435 678.14" stroke="#03786B" stroke-width="2" stroke-miterlimit="10" stroke-linecap="square" stroke-linejoin="bevel"/>
        <path d="M747.643 971.416L481.704 705.477" stroke="#03786B" stroke-width="2" stroke-miterlimit="10" stroke-linecap="square" stroke-linejoin="bevel"/>
        <path d="M717.136 972.977L480.142 735.983" stroke="#03786B" stroke-width="2" stroke-miterlimit="10" stroke-linecap="square" stroke-linejoin="bevel"/>
        <path d="M682.038 969.971L483.149 771.082" stroke="#03786B" stroke-width="2" stroke-miterlimit="10" stroke-linecap="square" stroke-linejoin="bevel"/>
        <path d="M638.853 958.877L494.242 814.267" stroke="#03786B" stroke-width="2" stroke-miterlimit="10" stroke-linecap="square" stroke-linejoin="bevel"/>
        <path d="M1015.87 388.77L1001.23 388.77" stroke="#31766A" stroke-width="5" stroke-miterlimit="10"/>
        <path d="M992.032 388.77L977.385 388.77" stroke="#31766A" stroke-width="5" stroke-miterlimit="10"/>
        <path d="M996.626 408L996.626 393.364" stroke="#31766A" stroke-width="5" stroke-miterlimit="10"/>
        <path d="M996.626 384.165L996.626 369.529" stroke="#31766A" stroke-width="5" stroke-miterlimit="10"/>
        <path d="M985.097 204.912C985.097 211.28 990.259 216.441 996.626 216.441C1002.99 216.441 1008.16 211.28 1008.16 204.912C1008.16 198.545 1002.99 193.383 996.626 193.383C990.259 193.383 985.097 198.545 985.097 204.912Z" stroke="#31766A" stroke-width="5" stroke-miterlimit="10"/>
        <path d="M652.069 22.5862L637.433 22.5862" stroke="#31766A" stroke-width="5" stroke-miterlimit="10"/>
        <path d="M628.224 22.5862L613.587 22.5862" stroke="#31766A" stroke-width="5" stroke-miterlimit="10"/>
        <path d="M632.828 41.8162L632.828 27.1799" stroke="#31766A" stroke-width="5" stroke-miterlimit="10"/>
        <path d="M632.828 17.9812L632.828 3.34497" stroke="#31766A" stroke-width="5" stroke-miterlimit="10"/>
        <path d="M652.069 388.77L637.433 388.77" stroke="#31766A" stroke-width="5" stroke-miterlimit="10"/>
        <path d="M628.224 388.77L613.587 388.77" stroke="#31766A" stroke-width="5" stroke-miterlimit="10"/>
        <path d="M632.828 408L632.828 393.364" stroke="#31766A" stroke-width="5" stroke-miterlimit="10"/>
        <path d="M632.828 384.165L632.828 369.529" stroke="#31766A" stroke-width="5" stroke-miterlimit="10"/>
        <path d="M621.299 204.912C621.299 211.28 626.461 216.441 632.828 216.441C639.196 216.441 644.357 211.28 644.357 204.912C644.357 198.545 639.196 193.383 632.828 193.383C626.461 193.383 621.299 198.545 621.299 204.912Z" stroke="#31766A" stroke-width="5" stroke-miterlimit="10"/>
        <path d="M469.532 22.5864L454.896 22.5864" stroke="#31766A" stroke-width="5" stroke-miterlimit="10"/>
        <path d="M445.687 22.5864L431.05 22.5864" stroke="#31766A" stroke-width="5" stroke-miterlimit="10"/>
        <path d="M450.291 41.8162L450.291 27.1799" stroke="#31766A" stroke-width="5" stroke-miterlimit="10"/>
        <path d="M450.291 17.9812L450.291 3.34497" stroke="#31766A" stroke-width="5" stroke-miterlimit="10"/>
        <path d="M469.532 388.77L454.896 388.77" stroke="#31766A" stroke-width="5" stroke-miterlimit="10"/>
        <path d="M445.687 388.77L431.05 388.77" stroke="#31766A" stroke-width="5" stroke-miterlimit="10"/>
        <path d="M450.291 408L450.291 393.364" stroke="#31766A" stroke-width="5" stroke-miterlimit="10"/>
        <path d="M450.291 384.165L450.291 369.529" stroke="#31766A" stroke-width="5" stroke-miterlimit="10"/>
        <path d="M438.762 204.912C438.762 211.28 443.924 216.441 450.291 216.441C456.658 216.441 461.82 211.28 461.82 204.912C461.82 198.545 456.658 193.383 450.291 193.383C443.924 193.383 438.762 198.545 438.762 204.912Z" stroke="#31766A" stroke-width="5" stroke-miterlimit="10"/>
        <path d="M832.819 199.575L818.183 199.575" stroke="#31766A" stroke-width="5" stroke-miterlimit="10"/>
        <path d="M808.984 199.575L794.348 199.575" stroke="#31766A" stroke-width="5" stroke-miterlimit="10"/>
        <path d="M813.59 218.816L813.59 204.18" stroke="#31766A" stroke-width="5" stroke-miterlimit="10"/>
        <path d="M813.59 194.97L813.59 180.333" stroke="#31766A" stroke-width="5" stroke-miterlimit="10"/>
        <path d="M832.819 388.77L818.183 388.77" stroke="#31766A" stroke-width="5" stroke-miterlimit="10"/>
        <path d="M808.984 388.77L794.348 388.77" stroke="#31766A" stroke-width="5" stroke-miterlimit="10"/>
        <path d="M813.59 408L813.59 393.364" stroke="#31766A" stroke-width="5" stroke-miterlimit="10"/>
        <path d="M813.59 384.165L813.59 369.529" stroke="#31766A" stroke-width="5" stroke-miterlimit="10"/>
        <path d="M286.995 22.5864L272.359 22.5864" stroke="#31766A" stroke-width="5" stroke-miterlimit="10"/>
        <path d="M263.149 22.5864L248.513 22.5864" stroke="#31766A" stroke-width="5" stroke-miterlimit="10"/>
        <path d="M267.754 41.8162L267.754 27.1799" stroke="#31766A" stroke-width="5" stroke-miterlimit="10"/>
        <path d="M267.754 17.9812L267.754 3.34497" stroke="#31766A" stroke-width="5" stroke-miterlimit="10"/>
        <path d="M286.995 199.575L272.359 199.575" stroke="#31766A" stroke-width="5" stroke-miterlimit="10"/>
        <path d="M263.149 199.575L248.513 199.575" stroke="#31766A" stroke-width="5" stroke-miterlimit="10"/>
        <path d="M267.754 218.816L267.754 204.18" stroke="#31766A" stroke-width="5" stroke-miterlimit="10"/>
        <path d="M267.754 194.97L267.754 180.333" stroke="#31766A" stroke-width="5" stroke-miterlimit="10"/>
        <path d="M286.995 388.77L272.359 388.77" stroke="#31766A" stroke-width="5" stroke-miterlimit="10"/>
        <path d="M263.149 388.77L248.513 388.77" stroke="#31766A" stroke-width="5" stroke-miterlimit="10"/>
        <path d="M267.754 408L267.754 393.364" stroke="#31766A" stroke-width="5" stroke-miterlimit="10"/>
        <path d="M267.754 384.165L267.754 369.529" stroke="#31766A" stroke-width="5" stroke-miterlimit="10"/>
        <path d="M105.602 199.575L90.9653 199.575" stroke="#31766A" stroke-width="5" stroke-miterlimit="10"/>
        <path d="M81.7549 199.575L67.1186 199.575" stroke="#31766A" stroke-width="5" stroke-miterlimit="10"/>
        <path d="M86.3604 218.816L86.3604 204.18" stroke="#31766A" stroke-width="5" stroke-miterlimit="10"/>
        <path d="M86.3604 194.97L86.3604 180.334" stroke="#31766A" stroke-width="5" stroke-miterlimit="10"/>
        <path d="M105.602 388.77L90.9653 388.77" stroke="#31766A" stroke-width="5" stroke-miterlimit="10"/>
        <path d="M81.7549 388.77L67.1186 388.77" stroke="#31766A" stroke-width="5" stroke-miterlimit="10"/>
        <path d="M86.3604 408L86.3604 393.364" stroke="#31766A" stroke-width="5" stroke-miterlimit="10"/>
        <path d="M86.3604 384.165L86.3604 369.529" stroke="#31766A" stroke-width="5" stroke-miterlimit="10"/>
        <path d="M74.8312 14.9409C74.8312 21.3083 79.993 26.4701 86.3605 26.4701C92.7279 26.4701 97.8896 21.3083 97.8896 14.9409C97.8896 8.57345 92.7279 3.41162 86.3605 3.41162C79.993 3.41162 74.8312 8.57345 74.8312 14.9409Z" stroke="#31766A" stroke-width="5" stroke-miterlimit="10"/>
        <path d="M1697.07 22.5862L1682.43 22.5862" stroke="#31766A" stroke-width="5" stroke-miterlimit="10"/>
        <path d="M1673.22 22.5862L1658.59 22.5862" stroke="#31766A" stroke-width="5" stroke-miterlimit="10"/>
        <path d="M1677.83 41.8162L1677.83 27.1799" stroke="#31766A" stroke-width="5" stroke-miterlimit="10"/>
        <path d="M1677.83 17.9812L1677.83 3.34497" stroke="#31766A" stroke-width="5" stroke-miterlimit="10"/>
        <path d="M1697.07 388.77L1682.43 388.77" stroke="#31766A" stroke-width="5" stroke-miterlimit="10"/>
        <path d="M1673.22 388.77L1658.59 388.77" stroke="#31766A" stroke-width="5" stroke-miterlimit="10"/>
        <path d="M1677.83 408L1677.83 393.364" stroke="#31766A" stroke-width="5" stroke-miterlimit="10"/>
        <path d="M1677.83 384.165L1677.83 369.529" stroke="#31766A" stroke-width="5" stroke-miterlimit="10"/>
        <path d="M1666.3 204.912C1666.3 211.28 1671.46 216.441 1677.83 216.441C1684.2 216.441 1689.36 211.28 1689.36 204.912C1689.36 198.545 1684.2 193.383 1677.83 193.383C1671.46 193.383 1666.3 198.545 1666.3 204.912Z" stroke="#31766A" stroke-width="5" stroke-miterlimit="10"/>
        <path d="M1514.53 22.5864L1499.9 22.5864" stroke="#31766A" stroke-width="5" stroke-miterlimit="10"/>
        <path d="M1490.69 22.5864L1476.05 22.5864" stroke="#31766A" stroke-width="5" stroke-miterlimit="10"/>
        <path d="M1495.29 41.8162L1495.29 27.1799" stroke="#31766A" stroke-width="5" stroke-miterlimit="10"/>
        <path d="M1495.29 17.9812L1495.29 3.34497" stroke="#31766A" stroke-width="5" stroke-miterlimit="10"/>
        <path d="M1514.53 388.77L1499.9 388.77" stroke="#31766A" stroke-width="5" stroke-miterlimit="10"/>
        <path d="M1490.69 388.77L1476.05 388.77" stroke="#31766A" stroke-width="5" stroke-miterlimit="10"/>
        <path d="M1495.29 408L1495.29 393.364" stroke="#31766A" stroke-width="5" stroke-miterlimit="10"/>
        <path d="M1495.29 384.165L1495.29 369.529" stroke="#31766A" stroke-width="5" stroke-miterlimit="10"/>
        <path d="M1483.76 204.912C1483.76 211.28 1488.92 216.441 1495.29 216.441C1501.66 216.441 1506.82 211.28 1506.82 204.912C1506.82 198.545 1501.66 193.383 1495.29 193.383C1488.92 193.383 1483.76 198.545 1483.76 204.912Z" stroke="#31766A" stroke-width="5" stroke-miterlimit="10"/>
        <path d="M1877.82 199.575L1863.18 199.575" stroke="#31766A" stroke-width="5" stroke-miterlimit="10"/>
        <path d="M1853.99 199.575L1839.35 199.575" stroke="#31766A" stroke-width="5" stroke-miterlimit="10"/>
        <path d="M1858.59 218.816L1858.59 204.18" stroke="#31766A" stroke-width="5" stroke-miterlimit="10"/>
        <path d="M1858.59 194.97L1858.59 180.333" stroke="#31766A" stroke-width="5" stroke-miterlimit="10"/>
        <path d="M1877.82 388.77L1863.18 388.77" stroke="#31766A" stroke-width="5" stroke-miterlimit="10"/>
        <path d="M1853.99 388.77L1839.35 388.77" stroke="#31766A" stroke-width="5" stroke-miterlimit="10"/>
        <path d="M1858.59 408L1858.59 393.364" stroke="#31766A" stroke-width="5" stroke-miterlimit="10"/>
        <path d="M1858.59 384.165L1858.59 369.529" stroke="#31766A" stroke-width="5" stroke-miterlimit="10"/>
        <path d="M1847.06 14.9409C1847.06 21.3083 1852.22 26.4701 1858.59 26.4701C1864.96 26.4701 1870.12 21.3083 1870.12 14.9409C1870.12 8.57345 1864.96 3.41162 1858.59 3.41162C1852.22 3.41162 1847.06 8.57345 1847.06 14.9409Z" stroke="#31766A" stroke-width="5" stroke-miterlimit="10"/>
        <path d="M1332 22.5864L1317.36 22.5864" stroke="#31766A" stroke-width="5" stroke-miterlimit="10"/>
        <path d="M1308.15 22.5864L1293.51 22.5864" stroke="#31766A" stroke-width="5" stroke-miterlimit="10"/>
        <path d="M1312.75 41.8162L1312.75 27.1799" stroke="#31766A" stroke-width="5" stroke-miterlimit="10"/>
        <path d="M1312.75 17.9812L1312.75 3.34497" stroke="#31766A" stroke-width="5" stroke-miterlimit="10"/>
        <path d="M1332 199.575L1317.36 199.575" stroke="#31766A" stroke-width="5" stroke-miterlimit="10"/>
        <path d="M1308.15 199.575L1293.51 199.575" stroke="#31766A" stroke-width="5" stroke-miterlimit="10"/>
        <path d="M1312.75 218.816L1312.75 204.18" stroke="#31766A" stroke-width="5" stroke-miterlimit="10"/>
        <path d="M1312.75 194.97L1312.75 180.333" stroke="#31766A" stroke-width="5" stroke-miterlimit="10"/>
        <path d="M1332 388.77L1317.36 388.77" stroke="#31766A" stroke-width="5" stroke-miterlimit="10"/>
        <path d="M1308.15 388.77L1293.51 388.77" stroke="#31766A" stroke-width="5" stroke-miterlimit="10"/>
        <path d="M1312.75 408L1312.75 393.364" stroke="#31766A" stroke-width="5" stroke-miterlimit="10"/>
        <path d="M1312.75 384.165L1312.75 369.529" stroke="#31766A" stroke-width="5" stroke-miterlimit="10"/>
        <path d="M1150.6 199.575L1135.97 199.575" stroke="#31766A" stroke-width="5" stroke-miterlimit="10"/>
        <path d="M1126.76 199.575L1112.12 199.575" stroke="#31766A" stroke-width="5" stroke-miterlimit="10"/>
        <path d="M1131.36 218.816L1131.36 204.18" stroke="#31766A" stroke-width="5" stroke-miterlimit="10"/>
        <path d="M1131.36 194.97L1131.36 180.334" stroke="#31766A" stroke-width="5" stroke-miterlimit="10"/>
        <path d="M1150.6 388.77L1135.97 388.77" stroke="#31766A" stroke-width="5" stroke-miterlimit="10"/>
        <path d="M1126.76 388.77L1112.12 388.77" stroke="#31766A" stroke-width="5" stroke-miterlimit="10"/>
        <path d="M1131.36 408L1131.36 393.364" stroke="#31766A" stroke-width="5" stroke-miterlimit="10"/>
        <path d="M1131.36 384.165L1131.36 369.529" stroke="#31766A" stroke-width="5" stroke-miterlimit="10"/>
    </g>
</svg>
