<svg width="183" height="32" viewBox="0 0 183 32" fill="none" xmlns="http://www.w3.org/2000/svg">
    <path fill-rule="evenodd" clip-rule="evenodd" d="M17.2737 4.1647C18.3239 4.45809 19.3264 4.8815 20.2533 5.42338L20.2578 1.11738C19.5806 0.926015 18.6381 0.692471 17.4303 0.416789C15.9532 0.115285 14.4427 -0.0235167 12.9302 0.00324607C8.56724 0.00458233 5.32144 1.03508 3.19286 3.09474C1.06429 5.15438 0 8.44996 0 12.9815C0 15.2579 0.260272 17.2024 0.780817 18.8151C1.22175 20.3067 2.03602 21.6819 3.15806 22.8301C4.27402 23.9157 5.67622 24.7154 7.22744 25.1507C8.87463 25.6419 10.8154 25.8873 13.0499 25.8873C14.671 25.9106 16.2883 25.7337 17.8587 25.3615C19.2217 25.0148 20.2281 24.6736 20.8776 24.3376V20.3106C20.5644 20.4792 20.1554 20.6801 19.6508 20.9129C19.0887 21.1654 18.5071 21.3794 17.9109 21.5533C17.198 21.7651 16.4717 21.9361 15.7359 22.0652C14.902 22.2156 14.054 22.2896 13.2043 22.286C11.9659 22.3109 10.7307 22.1605 9.54161 21.8403C8.50328 21.5426 7.56947 20.9953 6.83594 20.2545C6.03517 19.4046 5.46156 18.3932 5.16122 17.3016C4.78422 16.073 4.59572 14.5338 4.59572 12.6844C4.56376 11.2524 4.74081 9.82295 5.12207 8.43456C5.40506 7.40141 5.93741 6.44064 6.67935 5.62414C7.37161 4.89356 8.2675 4.35202 9.26975 4.05831C10.443 3.72886 11.6649 3.57103 12.8911 3.59058C14.3757 3.56627 15.855 3.76008 17.2737 4.1647ZM44.4461 0.363922H27.2637L27.253 25.4571C28.3433 25.5762 29.5382 25.666 30.8374 25.7262C32.1365 25.7864 33.4088 25.8165 34.6544 25.8165C36.7351 25.8165 38.5005 25.6304 39.9504 25.2583C41.2534 24.9583 42.4697 24.4001 43.5152 23.6223C44.4291 22.9131 45.1272 21.9964 45.5401 20.9624C45.992 19.7985 46.2131 18.5691 46.1926 17.333C46.1911 15.917 45.9832 14.7365 45.5684 13.7918C45.1886 12.8888 44.5485 12.0989 43.7175 11.5073C42.8044 10.8942 41.7544 10.4772 40.6443 10.2868C39.2268 10.0306 37.7844 9.91018 36.3399 9.92744C35.0684 9.9261 33.4973 9.9977 31.6269 10.1422V3.887H44.4461V0.363922ZM33.1645 22.1708C32.6338 22.1347 32.1081 22.0925 31.5877 22.0444L31.5789 13.3822C32.8591 13.2445 34.1464 13.1722 35.4352 13.1654C36.4553 13.1498 37.4748 13.2224 38.4802 13.3822C39.1654 13.4816 39.8174 13.7225 40.3876 14.0869C40.8529 14.41 41.1999 14.857 41.3815 15.3676C41.5942 16.0105 41.6926 16.6811 41.6731 17.353C41.6889 18.0926 41.5773 18.8298 41.3424 19.5371C41.1386 20.1254 40.7622 20.6499 40.255 21.0527C39.651 21.4931 38.9432 21.7957 38.1887 21.9359C37.1336 22.1464 36.0555 22.2433 34.9764 22.225C34.2992 22.225 33.6953 22.207 33.1645 22.1708ZM52.815 0.363922H70.1082V3.887H57.1759V11.0456H68.9011V14.4924H57.1759V22.0063H70.1082V25.5293H52.815V0.363922ZM80.3098 0.27477C79.0613 0.359085 77.8927 0.449424 76.8038 0.545785V25.5386H81.1667V17.6654C81.712 17.7123 82.2636 17.7476 82.822 17.7717C83.3802 17.7958 83.9189 17.8079 84.4379 17.8079C86.4926 17.8079 88.2449 17.6225 89.6949 17.2519C91.0161 16.9466 92.243 16.3634 93.2792 15.5475C94.2261 14.7663 94.9373 13.7716 95.3433 12.6608C95.8108 11.3233 96.0313 9.92251 95.9958 8.51739C96.0249 7.24951 95.8145 5.98664 95.3738 4.78553C94.9842 3.76373 94.297 2.86078 93.388 2.17583C92.4773 1.4933 91.2891 0.985412 89.8232 0.652177C88.0692 0.289412 86.2744 0.120931 84.4771 0.150309C82.9473 0.148973 81.5582 0.190454 80.3098 0.27477ZM82.7633 14.3852C82.2427 14.3611 81.7105 14.3249 81.1667 14.2768L81.1601 3.74365C81.701 3.69682 82.2529 3.66135 82.8154 3.63726C83.378 3.61317 83.958 3.60112 84.5554 3.60112C85.6511 3.58375 86.7455 3.68004 87.8179 3.88819C88.5959 4.03587 89.3282 4.34323 89.9602 4.78753C90.5145 5.2083 90.9208 5.77141 91.1282 6.40554C91.3863 7.19762 91.5109 8.02158 91.4979 8.84861C91.5182 9.71823 91.3936 10.5856 91.1282 11.4202C90.9041 12.09 90.4797 12.6877 89.9036 13.1445C89.2718 13.6222 88.5265 13.9551 87.7287 14.1162C86.6486 14.3372 85.544 14.4397 84.4379 14.4213C83.8419 14.4213 83.2837 14.4093 82.7633 14.3852Z" fill="#319B42"/>
    <path fill-rule="evenodd" clip-rule="evenodd" d="M113.46 0.36377H135.544V25.5292H131.221V3.95912H117.821V25.5292H113.46V0.36377ZM140.09 6.33248H143.907L144.103 9.5665C144.622 8.42359 145.541 7.47426 146.713 6.87048C147.882 6.27225 149.44 5.97316 151.387 5.97316C154.191 5.97316 156.262 6.71591 157.599 8.20143C158.936 9.68695 159.604 12.1433 159.604 15.5707C159.604 19.2136 158.883 21.8502 157.442 23.4802C156.001 25.1102 153.8 25.9252 150.841 25.9252C149.023 25.9252 147.594 25.6316 146.556 25.044C145.617 24.5436 144.817 23.848 144.22 23.0125V31.9999H140.088L140.09 6.33248ZM144.223 17.4979C144.223 19.1039 144.689 20.3754 145.623 21.3121C146.557 22.249 147.958 22.708 149.828 22.6892C150.725 22.7121 151.619 22.5836 152.466 22.3098C153.161 22.0741 153.766 21.6554 154.206 21.1054C154.688 20.4627 155.014 19.7313 155.161 18.9614C155.372 17.8969 155.47 16.8157 155.452 15.7333C155.452 13.3245 154.984 11.6368 154.049 10.6706C153.114 9.70434 151.712 9.21719 149.843 9.20917C147.895 9.20917 146.474 9.68426 145.58 10.6345C144.685 11.5847 144.237 12.8159 144.236 14.3282L144.223 17.4979ZM163.01 11.5138C162.49 12.9127 162.24 14.385 162.271 15.8639C162.272 19.1588 163.123 21.6687 164.824 23.3938C166.525 25.1189 169.05 25.9814 172.4 25.9814C173.8 25.9967 175.195 25.809 176.532 25.4253C177.74 25.0745 178.841 24.4643 179.744 23.6447C180.684 22.7663 181.396 21.7034 181.828 20.5352C182.322 19.2785 182.57 17.7629 182.57 15.9883C182.571 12.5088 181.714 9.96594 179.999 8.35997C178.284 6.75402 175.869 5.95104 172.754 5.95104C171.278 5.92786 169.808 6.13136 168.404 6.55326C167.17 6.93285 166.045 7.56565 165.113 8.40414C164.17 9.28287 163.451 10.3453 163.01 11.5138ZM167.976 21.0049C166.951 19.8541 166.438 18.2005 166.438 16.0446V15.9001C166.438 11.4193 168.424 9.17902 172.397 9.17902C174.423 9.17768 175.929 9.72237 176.915 10.8131C177.901 11.9037 178.394 13.5994 178.394 15.9001V16.0446C178.394 18.4173 177.901 20.1251 176.915 21.1675C175.929 22.21 174.501 22.7313 172.63 22.7313C170.552 22.7313 169.001 22.1558 167.976 21.0049Z" fill="#000000"/>
</svg>
