<svg width="14px" height="14px" viewBox="0 0 14 14" version="1.1" xmlns="http://www.w3.org/2000/svg" xmlns:xlink="http://www.w3.org/1999/xlink">
    <!-- Generator: Sketch 51.3 (57544) - http://www.bohemiancoding.com/sketch -->
    <desc>Created with Sketch.</desc>
    <defs></defs>
    <g id="Page-1" stroke="none" stroke-width="1" fill="none" fill-rule="evenodd">
        <g id="jam-close-circle" transform="translate(-1.000000, -1.000000)" fill-rule="nonzero">
            <g id="Icon">
                <path d="M8.94266667,8 L10.8286667,9.88533333 C11.089161,10.1458276 11.089161,10.5681724 10.8286667,10.8286667 C10.5681724,11.089161 10.1458276,11.089161 9.88533333,10.8286667 L8,8.94266667 L6.11466667,10.8286667 C5.9461564,10.9971769 5.70054733,11.0629877 5.47035802,11.0013086 C5.24016871,10.9396296 5.06037039,10.7598313 4.99869135,10.529642 C4.93701231,10.2994527 5.00282306,10.0538436 5.17133333,9.88533333 L7.05733333,8 L5.17133333,6.11466667 C5.00282306,5.9461564 4.93701231,5.70054733 4.99869135,5.47035802 C5.06037039,5.24016871 5.24016871,5.06037039 5.47035802,4.99869135 C5.70054733,4.93701231 5.9461564,5.00282306 6.11466667,5.17133333 L8,7.05733333 L9.88533333,5.17133333 C10.1458276,4.91083903 10.5681724,4.91083903 10.8286667,5.17133333 C11.089161,5.43182764 11.089161,5.85417236 10.8286667,6.11466667 L8.94266667,8 Z M8,14.6666667 C4.318,14.6666667 1.33333333,11.682 1.33333333,8 C1.33333333,4.318 4.318,1.33333333 8,1.33333333 C11.682,1.33333333 14.6666667,4.318 14.6666667,8 C14.6666667,11.682 11.682,14.6666667 8,14.6666667 Z M8,13.3333333 C10.9455187,13.3333333 13.3333333,10.9455187 13.3333333,8 C13.3333333,5.05448133 10.9455187,2.66666667 8,2.66666667 C5.05448133,2.66666667 2.66666667,5.05448133 2.66666667,8 C2.66666667,10.9455187 5.05448133,13.3333333 8,13.3333333 Z" id="Icon-Shape" fill="#FF0000"></path>
                <rect id="Icon-Rectangle-path" fill-opacity="0" fill="#000000" x="0" y="0" width="16" height="16"></rect>
            </g>
        </g>
    </g>
</svg>