<svg width="52" height="56" viewBox="0 0 52 56" fill="none" xmlns="http://www.w3.org/2000/svg">
    <mask id="mask0" mask-type="alpha" maskUnits="userSpaceOnUse" x="10" y="20" width="42" height="36">
        <path fill-rule="evenodd" clip-rule="evenodd" d="M16.6222 48.6771C18.4092 50.8901 20.5328 52.765 22.9041 54.2219C24.773 55.3755 26.1839 55.903 26.4414 55.9992C26.4414 55.9992 31.7495 53.4075 33.0016 52.6814C41.843 47.4904 50.6832 37.3937 51.8856 22.0585L51.1481 24.2825V24.282C51.1481 24.282 49.5705 28.6572 47.8682 31.6377C44.3871 37.7188 40.8807 41.9996 33.9065 46.2638C30.8186 48.018 29.3595 48.5835 26.7495 49.8189C23.111 47.7477 20.6811 45.1942 19.0896 42.5128C17.4986 39.8318 16.735 37.0202 16.4474 34.4489C16.2045 32.2288 16.2498 29.984 16.581 27.7775C16.7301 26.7193 16.9538 25.6741 17.2496 24.652L11.3418 20.7469C7.48209 35.1662 14.5373 46.0714 16.6222 48.6771Z" fill="white"/>
    </mask>
    <g mask="url(#mask0)">
        <path fill-rule="evenodd" clip-rule="evenodd" d="M16.6222 48.6771C18.4092 50.8901 20.5328 52.765 22.9041 54.2219C24.773 55.3755 26.1839 55.903 26.4414 55.9992C26.4414 55.9992 31.7495 53.4075 33.0016 52.6814C41.843 47.4904 50.6832 37.3937 51.8856 22.0585L51.1481 24.2825V24.282C51.1481 24.282 49.5705 28.6572 47.8682 31.6377C44.3871 37.7188 40.8807 41.9996 33.9065 46.2638C30.8186 48.018 29.3595 48.5835 26.7495 49.8189C23.111 47.7477 20.6811 45.1942 19.0896 42.5128C17.4986 39.8318 16.735 37.0202 16.4474 34.4489C16.2045 32.2288 16.2498 29.984 16.581 27.7775C16.7301 26.7193 16.9538 25.6741 17.2496 24.652L11.3418 20.7469C7.48209 35.1662 14.5373 46.0714 16.6222 48.6771Z" fill="url(#paint0_linear)"/>
    </g>
    <mask id="mask1" mask-type="alpha" maskUnits="userSpaceOnUse" x="0" y="6" width="38" height="47">
        <path fill-rule="evenodd" clip-rule="evenodd" d="M12.2006 6.69606C9.45791 7.12125 6.80291 8.02866 4.34749 9.3794C2.40645 10.4428 1.21475 11.4297 0.998709 11.6077C0.998709 11.6077 0.18106 17.7526 0.0810654 19.2628C0.0283935 20.114 0.000822999 20.9808 0 21.8614V21.9457C0.0111105 32.1216 3.6356 44.0406 14.2955 52.5392L12.912 50.6906C12.912 50.6906 10.2719 46.9426 8.81679 43.8233C5.847 37.4572 4.33186 32.0279 4.7199 23.4956C4.99766 19.7882 5.34003 18.1774 5.77293 15.1764C9.40853 13.0125 12.7795 12.1958 15.7876 12.1975C18.7957 12.1993 21.4589 13.0133 23.6773 14.1247C25.5854 15.0887 27.3565 16.3254 28.942 17.7993C29.707 18.4967 30.4201 19.2542 31.076 20.0648L37.4172 16.8448C29.9308 7.99366 20.4713 6.496 15.2761 6.496C13.9268 6.496 12.8655 6.59668 12.2006 6.69606Z" fill="white"/>
    </mask>
    <g mask="url(#mask1)">
        <path fill-rule="evenodd" clip-rule="evenodd" d="M12.2006 6.69606C9.45791 7.12125 6.80291 8.02866 4.34749 9.3794C2.40645 10.4428 1.21475 11.4297 0.998709 11.6077C0.998709 11.6077 0.18106 17.7526 0.0810654 19.2628C0.0283935 20.114 0.000822999 20.9808 0 21.8614V21.9457C0.0111105 32.1216 3.6356 44.0406 14.2955 52.5392L12.912 50.6906C12.912 50.6906 10.2719 46.9426 8.81679 43.8233C5.847 37.4572 4.33186 32.0279 4.7199 23.4956C4.99766 19.7882 5.34003 18.1774 5.77293 15.1764C9.40853 13.0125 12.7795 12.1958 15.7876 12.1975C18.7957 12.1993 21.4589 13.0133 23.6773 14.1247C25.5854 15.0887 27.3565 16.3254 28.942 17.7993C29.707 18.4967 30.4201 19.2542 31.076 20.0648L37.4172 16.8448C29.9308 7.99366 20.4713 6.496 15.2761 6.496C13.9268 6.496 12.8655 6.59668 12.2006 6.69606Z" fill="url(#paint1_linear)"/>
    </g>
    <mask id="mask2" mask-type="alpha" maskUnits="userSpaceOnUse" x="8" y="0" width="42" height="42">
        <path fill-rule="evenodd" clip-rule="evenodd" d="M24.3019 0C19.1662 0.00820988 13.7171 1.22198 8.24414 4.18963L10.3996 3.68407C10.3996 3.68407 14.7141 2.81296 17.9866 2.78877V2.7892C24.6643 2.73994 29.9243 3.65815 37.0073 7.71124C40.0372 9.57661 41.2597 10.5964 43.6233 12.3014C43.9066 16.6678 43.1612 20.198 41.8729 23.0395C40.5833 25.8814 38.7529 28.0359 36.862 29.6506C35.226 31.0342 33.4179 32.171 31.4901 33.0292C30.5694 33.4496 29.6203 33.7953 28.651 34.0636L28.6753 41.4396C42.1816 37.3593 47.1133 25.2808 48.0803 22.0327C48.8926 19.2612 49.2578 16.3631 49.1604 13.4625C49.0878 11.1723 48.7583 9.62068 48.7003 9.33982C48.7003 9.33982 43.8291 5.91111 42.589 5.16574C37.562 2.16827 31.2645 0.00864198 24.4001 0H24.3019Z" fill="white"/>
    </mask>
    <g mask="url(#mask2)">
        <path fill-rule="evenodd" clip-rule="evenodd" d="M24.3019 0C19.1662 0.00820988 13.7171 1.22198 8.24414 4.18963L10.3996 3.68407C10.3996 3.68407 14.7141 2.81296 17.9866 2.78877V2.7892C24.6643 2.73994 29.9243 3.65815 37.0073 7.71124C40.0372 9.57661 41.2597 10.5964 43.6233 12.3014C43.9066 16.6678 43.1612 20.198 41.8729 23.0395C40.5833 25.8814 38.7529 28.0359 36.862 29.6506C35.226 31.0342 33.4179 32.171 31.4901 33.0292C30.5694 33.4496 29.6203 33.7953 28.651 34.0636L28.6753 41.4396C42.1816 37.3593 47.1133 25.2808 48.0803 22.0327C48.8926 19.2612 49.2578 16.3631 49.1604 13.4625C49.0878 11.1723 48.7583 9.62068 48.7003 9.33982C48.7003 9.33982 43.8291 5.91111 42.589 5.16574C37.562 2.16827 31.2645 0.00864198 24.4001 0H24.3019Z" fill="url(#paint2_linear)"/>
    </g>
    <defs>
        <linearGradient id="paint0_linear" x1="10.2069" y1="55.9995" x2="51.8856" y2="55.9995" gradientUnits="userSpaceOnUse">
            <stop stop-color="#00EFFD"/>
            <stop offset="1" stop-color="#1795CC"/>
        </linearGradient>
        <linearGradient id="paint1_linear" x1="0" y1="52.5394" x2="37.4173" y2="52.5394" gradientUnits="userSpaceOnUse">
            <stop stop-color="#00EFFD"/>
            <stop offset="1" stop-color="#1795CC"/>
        </linearGradient>
        <linearGradient id="paint2_linear" x1="8.24417" y1="41.4393" x2="49.1759" y2="41.4393" gradientUnits="userSpaceOnUse">
            <stop stop-color="#00EFFD"/>
            <stop offset="1" stop-color="#1795CC"/>
        </linearGradient>
    </defs>
</svg>
