<?xml version="1.0" encoding="utf-8"?>
<!-- Generator: Adobe Illustrator 24.0.1, SVG Export Plug-In . SVG Version: 6.00 Build 0)  -->
<svg version="1.1" id="Layer_1" xmlns="http://www.w3.org/2000/svg" xmlns:xlink="http://www.w3.org/1999/xlink" x="0px" y="0px"
	 viewBox="0 0 248 83" style="enable-background:new 0 0 248 83;" xml:space="preserve">
<style type="text/css">
	.st0{fill:none;stroke:url(#SVGID_1_);stroke-miterlimit:10;}
	.st1{fill:url(#SVGID_2_);}
	.st2{fill:url(#SVGID_3_);}
	.st3{fill:url(#SVGID_4_);}
	.st4{fill:url(#SVGID_5_);}
	.st5{fill:url(#SVGID_6_);}
	.st6{fill:url(#SVGID_7_);}
	.st7{fill:url(#SVGID_8_);}
	.st8{fill:url(#SVGID_9_);}
	.st9{fill:#1D1D1B;}
</style>
<linearGradient id="SVGID_1_" gradientUnits="userSpaceOnUse" x1="-7110.7974" y1="-41090.0547" x2="-1650.4919" y2="-10124.9551" gradientTransform="matrix(1 0 0 -1 0 84)">
	<stop  offset="0" style="stop-color:#B2B2B2"/>
	<stop  offset="0.13" style="stop-color:#C2C2C2"/>
	<stop  offset="0.36" style="stop-color:#DADADA"/>
	<stop  offset="0.5" style="stop-color:#E3E3E3"/>
	<stop  offset="0.64" style="stop-color:#DADADA"/>
	<stop  offset="0.88" style="stop-color:#C2C2C2"/>
	<stop  offset="1" style="stop-color:#B2B2B2"/>
</linearGradient>
<path class="st0" d="M178,45.3c0,20-16.2,36.2-36.2,36.2c-3.6,0-7.1-0.5-10.6-1.6c-14.9-4.5-25.7-18.3-25.7-34.7
	c0-20,16.2-36.2,36.2-36.2C161.7,9.1,178,25.3,178,45.3z"/>
<linearGradient id="SVGID_2_" gradientUnits="userSpaceOnUse" x1="17277.8809" y1="15750.9678" x2="14184.1797" y2="12916.9785" gradientTransform="matrix(1 0 0 -1 0 84)">
	<stop  offset="0" style="stop-color:#1D71B8"/>
	<stop  offset="0.2" style="stop-color:#1B63AE"/>
	<stop  offset="0.52" style="stop-color:#1951A0"/>
	<stop  offset="0.74" style="stop-color:#20428E"/>
	<stop  offset="1" style="stop-color:#2A2C73"/>
</linearGradient>
<path class="st1" d="M140.2,22.6h24.1l4.5-7.5h-24.1L140.2,22.6z"/>
<radialGradient id="SVGID_3_" cx="-557.976" cy="425.9895" r="1" gradientTransform="matrix(23253.5 0 0 -32700.3008 13027381 13951729)" gradientUnits="userSpaceOnUse">
	<stop  offset="0" style="stop-color:#AAAEB1"/>
	<stop  offset="0.25" style="stop-color:#939A9D"/>
	<stop  offset="0.5" style="stop-color:#81898C"/>
	<stop  offset="0.71" style="stop-color:#93999C"/>
	<stop  offset="1" style="stop-color:#B4B5B7"/>
</radialGradient>
<path class="st2" d="M153.8,7.5h-9.1l-39.2,67.9h9.1L153.8,7.5z"/>
<radialGradient id="SVGID_4_" cx="-557.4339" cy="425.653" r="1" gradientTransform="matrix(985.738 0 0 -985.738 560058 424745.1562)" gradientUnits="userSpaceOnUse">
	<stop  offset="0" style="stop-color:#AAAEB1"/>
	<stop  offset="0.25" style="stop-color:#939A9D"/>
	<stop  offset="0.5" style="stop-color:#81898C"/>
	<stop  offset="0.71" style="stop-color:#93999C"/>
	<stop  offset="1" style="stop-color:#B4B5B7"/>
</radialGradient>
<path class="st3" d="M107,36.2c3.3,0,6-2.7,6-6s-2.7-6-6-6c-3.3,0-6,2.7-6,6S103.7,36.2,107,36.2z"/>
<radialGradient id="SVGID_5_" cx="-557.9064" cy="425.9623" r="1" gradientTransform="matrix(5961.6401 0 0 -9077.21 3351397.25 3887186)" gradientUnits="userSpaceOnUse">
	<stop  offset="0" style="stop-color:#AAAEB1"/>
	<stop  offset="0.25" style="stop-color:#939A9D"/>
	<stop  offset="0.5" style="stop-color:#81898C"/>
	<stop  offset="0.71" style="stop-color:#93999C"/>
	<stop  offset="1" style="stop-color:#B4B5B7"/>
</radialGradient>
<path class="st4" d="M117,83h3l12.7-22.1c-0.8-0.4-1.5-0.9-2.2-1.5L117,83z M138.7,45.3l-4.4,7.5c0.6,0.6,1.3,1.1,2.1,1.6l5.3-9.1
	L138.7,45.3z"/>
<linearGradient id="SVGID_6_" gradientUnits="userSpaceOnUse" x1="-3576.1443" y1="-12776.6416" x2="-1407.7457" y2="-5308.6431" gradientTransform="matrix(1 0 0 -1 0 84)">
	<stop  offset="0" style="stop-color:#1D71B8"/>
	<stop  offset="0.2" style="stop-color:#1B63AE"/>
	<stop  offset="0.52" style="stop-color:#1951A0"/>
	<stop  offset="0.74" style="stop-color:#20428E"/>
	<stop  offset="1" style="stop-color:#2A2C73"/>
</linearGradient>
<path class="st5" d="M142.5,27.2l-4.8,8.3c2-0.9,4.3-1,6.4-0.5c2.2,0.5,4.1,1.7,5.6,3.3c1.5,1.7,2.4,3.7,2.6,5.9
	c0.2,2.2-0.3,4.4-1.4,6.3c-1.1,1.9-2.8,3.4-4.8,4.3c-2,0.9-4.3,1.2-6.4,0.7c-2.2-0.4-4.1-1.5-5.6-3.2s-2.5-3.7-2.7-5.9l-4.8,8.4
	c1.7,2.6,4,4.8,6.7,6.3c2.7,1.5,5.8,2.2,8.9,2.2c3.1-0.1,6.2-0.9,8.8-2.5c2.7-1.6,4.9-3.8,6.5-6.5c1.6-2.7,2.4-5.8,2.4-8.9
	c0-3.1-0.7-6.2-2.2-8.9c-1.5-2.7-3.7-5-6.3-6.7C148.6,28.2,145.6,27.3,142.5,27.2z"/>
<radialGradient id="SVGID_7_" cx="-557.9107" cy="425.7592" r="1" gradientTransform="matrix(6247.9902 0 0 -1420.36 3512987 608159.375)" gradientUnits="userSpaceOnUse">
	<stop  offset="0" style="stop-color:#D62717"/>
	<stop  offset="0.5" style="stop-color:#E42313"/>
	<stop  offset="0.74" style="stop-color:#E63521"/>
	<stop  offset="1" style="stop-color:#E94F35"/>
</radialGradient>
<path class="st6" d="M107,30.2h28.7l4.5-7.5h-28.7L107,30.2z"/>
<radialGradient id="SVGID_8_" cx="-557.9106" cy="425.9536" r="1" gradientTransform="matrix(6241.9399 0 0 -7366.7598 3509750.75 3153901)" gradientUnits="userSpaceOnUse">
	<stop  offset="0" style="stop-color:#D62717"/>
	<stop  offset="0.5" style="stop-color:#E42313"/>
	<stop  offset="0.74" style="stop-color:#E63521"/>
	<stop  offset="1" style="stop-color:#E94F35"/>
</radialGradient>
<path class="st7" d="M114.6,67.9l19.1-33.2h-9.1l-19.1,33.2H114.6z"/>
<radialGradient id="SVGID_9_" cx="-557.9276" cy="425.9714" r="1" gradientTransform="matrix(7704.46 0 0 -11971 4329392.5 5122561.5)" gradientUnits="userSpaceOnUse">
	<stop  offset="1.000000e-02" style="stop-color:#00A5DF"/>
	<stop  offset="0.13" style="stop-color:#009DDA"/>
	<stop  offset="0.5" style="stop-color:#008BCE"/>
	<stop  offset="0.58" style="stop-color:#1294D3"/>
	<stop  offset="0.75" style="stop-color:#42ACE0"/>
	<stop  offset="0.99" style="stop-color:#8FD3F5"/>
	<stop  offset="1" style="stop-color:#93D5F6"/>
</radialGradient>
<path class="st8" d="M167.9,0l-8.7,15.1h3L170.9,0H167.9z M141.7,45.3h3l13.1-22.6h-3L141.7,45.3z"/>
<path class="st9" d="M174.1,66.8c0.3-0.3,0.7-0.4,1.1-0.4c0.4,0,0.8,0.2,1.1,0.4c0.1,0.1,0.3,0.3,0.3,0.5c0.1,0.2,0.1,0.4,0.1,0.6
	c0,0.2,0,0.4-0.1,0.6c-0.1,0.2-0.2,0.4-0.3,0.5c-0.1,0.1-0.3,0.3-0.5,0.3c-0.2,0.1-0.4,0.1-0.6,0.1c-0.3,0-0.6-0.1-0.8-0.3
	c-0.2-0.2-0.4-0.4-0.6-0.7c-0.1-0.3-0.1-0.6-0.1-0.9C173.7,67.3,173.8,67,174.1,66.8L174.1,66.8z M174.3,68.8
	c0.1,0.1,0.2,0.2,0.4,0.3c0.1,0.1,0.3,0.1,0.4,0.1c0.2,0,0.3,0,0.4-0.1c0.1-0.1,0.3-0.1,0.4-0.3c0.2-0.2,0.3-0.5,0.3-0.9
	s-0.1-0.6-0.3-0.9c-0.1-0.1-0.2-0.2-0.4-0.3c-0.1-0.1-0.3-0.1-0.4-0.1c-0.2,0-0.3,0-0.4,0.1c-0.1,0.1-0.3,0.1-0.4,0.3
	c-0.2,0.2-0.3,0.5-0.3,0.9S174.1,68.5,174.3,68.8L174.3,68.8z"/>
<path class="st9" d="M179.6,69.4v-2.7H178v2.7h-0.4v-3h2.3v3H179.6z"/>
<path class="st9" d="M181.2,69.4v-3h1.7v0.3h-1.3v1h1.2v0.3h-1.2v1h1.4v0.3L181.2,69.4z"/>
<path class="st9" d="M184.2,69.4h-0.4v-3c0.1,0,0.2,0,0.4,0c0.2,0,0.3,0,0.4,0c0.4,0,0.7,0.1,0.8,0.3c0.2,0.2,0.3,0.4,0.3,0.7
	c0,0.2-0.1,0.5-0.3,0.7c-0.1,0.1-0.2,0.2-0.4,0.2c-0.1,0-0.3,0.1-0.4,0.1c-0.2,0-0.3,0-0.4,0L184.2,69.4z M184.2,66.8v1.2
	c0.2,0,0.3,0,0.4,0c0.4,0,0.7-0.2,0.7-0.6c0-0.4-0.2-0.6-0.7-0.6C184.6,66.8,184.4,66.8,184.2,66.8z"/>
<path class="st9" d="M186.7,69.4v-3h1.7v0.3h-1.3v1h1.2v0.3h-1.2v1h1.4v0.3L186.7,69.4z"/>
<path class="st9" d="M190.5,67.9l-1.2-1.4h0.4l1.2,1.4l-1.2,1.6h-0.4L190.5,67.9z M191,69.4v-3h0.4v3H191z M193,66.4l-1.2,1.4
	l1.3,1.6h-0.4l-1.2-1.6l1.2-1.4H193z"/>
<path class="st9" d="M195.8,66.4v3h-0.4v-0.9h-1.1l-0.6,0.9h-0.4l2.2-3H195.8z M195.5,67l-0.8,1.2h0.8V67z"/>
<path class="st9" d="M198.5,69.4v-1.1h-0.6l-0.8,1.1h-0.4l0.8-1.2c-0.2-0.1-0.3-0.2-0.4-0.3c-0.1-0.1-0.2-0.3-0.2-0.5
	c0-0.1,0-0.3,0.1-0.4c0.1-0.1,0.1-0.2,0.2-0.3c0.2-0.2,0.6-0.3,0.9-0.3h0.4c0.2,0,0.3,0,0.3,0v3L198.5,69.4z M198.5,68v-1.2
	c-0.2,0-0.3,0-0.4,0c-0.4,0-0.7,0.3-0.7,0.6c0,0.1,0.1,0.3,0.2,0.4c0.1,0.1,0.2,0.2,0.4,0.2L198.5,68z"/>
<path class="st9" d="M173.9,72.5c0.4,0,0.7,0,0.8,0c0.7,0,1,0.3,1,0.7c0,0.2,0,0.3-0.1,0.4c-0.1,0.1-0.2,0.2-0.4,0.3v0
	c0.2,0,0.3,0.1,0.5,0.2c0.1,0.1,0.2,0.3,0.2,0.5c0,0.6-0.4,0.9-1.1,0.9c-0.3,0-0.6,0-0.8,0V72.5z M174.2,72.8v1h0.5
	c0.3,0,0.6-0.2,0.6-0.5c0-0.3-0.2-0.5-0.6-0.5C174.6,72.8,174.4,72.8,174.2,72.8L174.2,72.8z M174.2,74.1v1c0.1,0,0.3,0,0.5,0
	c0.4,0,0.7-0.2,0.7-0.5c0-0.3-0.2-0.5-0.7-0.5H174.2z"/>
<path class="st9" d="M177.1,75.5h-0.4v-3c0.1,0,0.2,0,0.4,0h0.4c0.4,0,0.7,0.1,0.8,0.3c0.1,0.1,0.2,0.2,0.2,0.3
	c0,0.1,0.1,0.2,0.1,0.4c0,0.1,0,0.2-0.1,0.4c0,0.1-0.1,0.2-0.2,0.3c-0.1,0.1-0.2,0.2-0.4,0.2c-0.1,0-0.3,0.1-0.4,0.1
	c-0.2,0-0.3,0-0.4,0L177.1,75.5z M177.1,72.8V74c0.2,0,0.3,0,0.4,0c0.4,0,0.7-0.2,0.7-0.6c0-0.4-0.2-0.6-0.7-0.6
	C177.5,72.8,177.3,72.8,177.1,72.8z"/>
<path class="st9" d="M179.6,75.5v-3h1.7v0.3H180v1h1.2v0.3H180v1h1.4v0.3L179.6,75.5z"/>
<path class="st9" d="M185.8,72.5v3h-0.4v-2.3l-1.4,2.3h-0.3v-2.3l-1.4,2.3h-0.5l1.9-3h0.3v2.3l1.4-2.3H185.8z"/>
<path class="st9" d="M188.4,75.5v-1.1h-0.6l-0.8,1.1h-0.4l0.8-1.2c-0.2-0.1-0.3-0.2-0.4-0.3c-0.1-0.1-0.2-0.3-0.2-0.5
	c0-0.1,0-0.3,0.1-0.4c0.1-0.1,0.1-0.2,0.2-0.3c0.2-0.2,0.6-0.3,0.9-0.3h0.4c0.2,0,0.3,0,0.3,0v3L188.4,75.5z M188.4,74v-1.2
	c-0.2,0-0.3,0-0.4,0c-0.4,0-0.7,0.3-0.7,0.6c0,0.1,0.1,0.3,0.2,0.4c0.1,0.1,0.2,0.2,0.4,0.2H188.4z"/>
<path class="st9" d="M175.6,38.5h-1.8v-0.7h2.9l-1.6,4.5h-0.8L175.6,38.5z"/>
<path class="st9" d="M177.7,40.1l0.3-2.4h2.1v0.7h-1.5l-0.1,0.9c0.2,0,0.5,0,0.7,0c0.2,0.1,0.4,0.2,0.6,0.3c0.1,0.1,0.2,0.3,0.3,0.5
	c0.1,0.2,0.1,0.4,0.1,0.6c0,0.2,0,0.4-0.1,0.6c-0.1,0.2-0.2,0.4-0.3,0.5c-0.3,0.3-0.7,0.4-1.1,0.4c-0.3,0-0.5-0.1-0.8-0.2
	c-0.2-0.1-0.4-0.3-0.6-0.5l0.4-0.6c0.1,0.1,0.2,0.3,0.4,0.3c0.2,0.1,0.3,0.1,0.5,0.1c0.1,0,0.2,0,0.3-0.1c0.1,0,0.2-0.1,0.2-0.2
	c0.1-0.1,0.1-0.2,0.2-0.3c0-0.1,0.1-0.2,0-0.3c0-0.1,0-0.2-0.1-0.3c0-0.1-0.1-0.2-0.2-0.3c-0.2-0.2-0.4-0.2-0.7-0.2
	C178.2,40,177.9,40,177.7,40.1z"/>
<path class="st9" d="M186.2,37.7h0.8v4.5h-0.8v-3.3l-2.3,3.3H183L186.2,37.7z"/>
<path class="st9" d="M191.3,42.2h-2.7v-4.5h2.6v0.7h-1.8v1.1h1.6v0.7h-1.6v1.2h1.9V42.2z"/>
<path class="st9" d="M193.9,38.5h-1.5v-0.7h3.7v0.7h-1.5v3.8h-0.8V38.5z"/>
<path class="st9" d="M176.7,45.3h0.8v4.5h-0.8v-1.2h-1.5l-0.8,1.2h-0.9L176.7,45.3z M176.6,47.9v-1.4l-1,1.4H176.6z"/>
<path class="st9" d="M180.1,46h-1.5v-0.7h3.7V46h-1.5v3.8h-0.8V46z"/>
<path class="st9" d="M183.2,47.5c0-0.3,0-0.6,0.2-0.9c0.1-0.3,0.3-0.5,0.5-0.8c0.2-0.2,0.5-0.4,0.8-0.5c0.3-0.1,0.6-0.2,0.9-0.2
	c0.3,0,0.6,0,0.9,0.2c0.3,0.1,0.6,0.3,0.8,0.5c0.4,0.5,0.7,1.1,0.7,1.7s-0.2,1.2-0.7,1.7c-0.5,0.4-1.1,0.7-1.7,0.7
	c-0.6,0-1.2-0.2-1.7-0.6c-0.2-0.2-0.4-0.5-0.5-0.8C183.2,48.2,183.2,47.8,183.2,47.5z M184,47.5c0,0.2,0,0.4,0.1,0.6
	c0.1,0.2,0.2,0.4,0.3,0.5c0.1,0.1,0.3,0.3,0.5,0.3c0.2,0.1,0.4,0.1,0.6,0.1c0.2,0,0.4,0,0.6-0.1c0.2-0.1,0.4-0.2,0.5-0.3
	c0.3-0.3,0.4-0.7,0.4-1.1c0-0.2,0-0.4-0.1-0.6c-0.1-0.2-0.2-0.4-0.3-0.5c-0.3-0.3-0.7-0.4-1.1-0.4s-0.8,0.2-1.1,0.4
	c-0.1,0.2-0.3,0.3-0.3,0.5C184.1,47.1,184,47.3,184,47.5L184,47.5z"/>
<path class="st9" d="M193.4,45.3h0.8v4.5h-0.8v-3.1l-2,3.1h-0.7v-3l-1.9,3h-1l2.9-4.5h0.7v3.1L193.4,45.3z"/>
<path class="st9" d="M199.5,49.8h-0.8v-1.9h-2.1v1.9h-0.8v-4.5h0.8v1.8h2.1v-1.8h0.8V49.8z"/>
<path class="st9" d="M200.9,47.5c0-0.3,0-0.6,0.2-0.9c0.1-0.3,0.3-0.5,0.5-0.8c0.2-0.2,0.5-0.4,0.8-0.5c0.3-0.1,0.6-0.2,0.9-0.2
	c0.3,0,0.6,0,0.9,0.2c0.3,0.1,0.6,0.3,0.8,0.5c0.4,0.5,0.7,1.1,0.7,1.7s-0.2,1.2-0.7,1.7c-0.5,0.4-1.1,0.7-1.7,0.7
	c-0.6,0-1.2-0.2-1.7-0.6c-0.2-0.2-0.4-0.5-0.5-0.8C200.9,48.2,200.9,47.8,200.9,47.5z M201.7,47.5c0,0.2,0,0.4,0.1,0.6
	c0.1,0.2,0.2,0.4,0.3,0.5c0.1,0.1,0.3,0.3,0.5,0.3c0.2,0.1,0.4,0.1,0.6,0.1c0.2,0,0.4,0,0.6-0.1c0.2-0.1,0.4-0.2,0.5-0.3
	c0.3-0.3,0.4-0.7,0.4-1.1c0-0.2,0-0.4-0.1-0.6c-0.1-0.2-0.2-0.4-0.3-0.5c-0.3-0.3-0.7-0.4-1.1-0.4c-0.4,0-0.8,0.2-1.1,0.4
	c-0.1,0.2-0.3,0.3-0.3,0.5C201.7,47.1,201.7,47.3,201.7,47.5L201.7,47.5z"/>
<path class="st9" d="M210,49.8V47l-3.1,2.9v-4.6h0.8v2.9l3.1-2.9v4.6L210,49.8z M207.7,44.2h0.7c0.1,0.2,0.2,0.4,0.5,0.4
	c0.3,0,0.5-0.1,0.5-0.4h0.7c0,0.1,0,0.3-0.1,0.4c-0.1,0.1-0.2,0.2-0.3,0.3c-0.3,0.2-0.6,0.3-0.9,0.3c-0.3,0-0.6-0.1-0.9-0.2
	c-0.1-0.1-0.2-0.2-0.3-0.3C207.7,44.4,207.7,44.3,207.7,44.2z"/>
<path class="st9" d="M177.8,57.3H177v-3.8h-2v3.8h-0.8v-4.5h3.6L177.8,57.3z"/>
<path class="st9" d="M179.9,55.7v1.6h-0.8v-4.5c0.2,0,0.4,0,0.6,0c0.2,0,0.4,0,0.7,0c0.3,0,0.6,0,0.8,0.1c0.2,0.1,0.4,0.2,0.5,0.3
	c0.1,0.1,0.2,0.3,0.3,0.5c0.1,0.2,0.1,0.4,0.1,0.5c0,0.2,0,0.4-0.1,0.6s-0.2,0.3-0.3,0.5c-0.2,0.1-0.4,0.3-0.6,0.3
	c-0.2,0.1-0.4,0.1-0.6,0.1C180.3,55.7,180.1,55.7,179.9,55.7z M180.5,53.6l-0.6,0V55c0.2,0,0.4,0,0.6,0c0.2,0,0.4-0.1,0.6-0.2
	c0.1-0.1,0.1-0.1,0.2-0.2c0-0.1,0.1-0.2,0.1-0.3C181.3,53.8,181.1,53.6,180.5,53.6L180.5,53.6z"/>
<path class="st9" d="M183,55.1c0-0.3,0-0.6,0.2-0.9c0.1-0.3,0.3-0.5,0.5-0.8c0.2-0.2,0.5-0.4,0.8-0.5c0.3-0.1,0.6-0.2,0.9-0.2
	c0.3,0,0.6,0,0.9,0.2c0.3,0.1,0.6,0.3,0.8,0.5c0.4,0.5,0.7,1.1,0.7,1.7c0,0.6-0.2,1.2-0.7,1.7c-0.5,0.4-1.1,0.7-1.7,0.7
	s-1.2-0.2-1.7-0.6c-0.2-0.2-0.4-0.5-0.5-0.8C183,55.7,183,55.4,183,55.1z M183.8,55.1c0,0.2,0,0.4,0.1,0.6c0.1,0.2,0.2,0.4,0.3,0.5
	c0.1,0.1,0.3,0.3,0.5,0.3c0.2,0.1,0.4,0.1,0.6,0.1c0.2,0,0.4,0,0.6-0.1c0.2-0.1,0.4-0.2,0.5-0.3c0.3-0.3,0.4-0.7,0.4-1.1
	c0-0.2,0-0.4-0.1-0.6c-0.1-0.2-0.2-0.4-0.3-0.5c-0.3-0.3-0.7-0.4-1.1-0.4s-0.8,0.2-1.1,0.4c-0.1,0.2-0.3,0.3-0.3,0.5
	C183.8,54.7,183.8,54.9,183.8,55.1z"/>
<path class="st9" d="M193.4,52.8h0.8v4.5h-0.8v-3.1l-2,3.1h-0.7v-3l-1.9,3h-1l2.9-4.5h0.7v3.1L193.4,52.8z"/>
<path class="st9" d="M195.8,52.8h0.8v1.5c0.2,0,0.3,0,0.5,0c0.5,0,0.9,0.1,1.2,0.4c0.1,0.1,0.3,0.3,0.3,0.5c0.1,0.2,0.1,0.4,0.1,0.6
	c0,0.2,0,0.4-0.1,0.6c-0.1,0.2-0.2,0.4-0.4,0.5c-0.3,0.3-0.8,0.4-1.3,0.4c-0.2,0-0.4,0-0.6,0s-0.3,0-0.5,0L195.8,52.8z M197,55.1
	c-0.1,0-0.2,0-0.4,0v1.5h0.2c0.1,0,0.2,0,0.2,0c0.6,0,0.9-0.3,0.9-0.8c0-0.1,0-0.2,0-0.3c0-0.1-0.1-0.2-0.2-0.2
	C197.5,55.1,197.3,55.1,197,55.1L197,55.1z M200.1,57.3h-0.8v-4.5h0.8V57.3z"/>
<path class="st9" d="M207,57.3h-5.2v-4.5h0.8v3.8h1.4v-3.8h0.8v3.8h1.4v-3.8h0.8L207,57.3z"/>
<path class="st9" d="M211.3,52.8h0.8v4.5h-0.8V54l-2.3,3.3h-0.9L211.3,52.8z"/>
<path class="st9" d="M216.4,57.3h-2.7v-4.5h2.6v0.7h-1.8v1.1h1.6v0.7h-1.6v1.2h1.9L216.4,57.3z"/>
<path class="st9" d="M221.5,57.3h-0.8v-1.9h-2.1v1.9h-0.8v-4.5h0.8v1.8h2.1v-1.8h0.8L221.5,57.3z"/>
<path class="st9" d="M226.8,57.3H226v-1.9H224v1.9h-0.8v-4.5h0.8v1.8h2.1v-1.8h0.8V57.3z"/>
<path class="st9" d="M228.2,55.1c0-0.3,0-0.6,0.2-0.9c0.1-0.3,0.3-0.5,0.5-0.8c0.2-0.2,0.5-0.4,0.8-0.5c0.3-0.1,0.6-0.2,0.9-0.2
	c0.3,0,0.6,0,0.9,0.2c0.3,0.1,0.6,0.3,0.8,0.5c0.4,0.5,0.7,1.1,0.7,1.7c0,0.6-0.2,1.2-0.7,1.7c-0.5,0.4-1.1,0.7-1.7,0.7
	c-0.6,0-1.2-0.2-1.7-0.6c-0.2-0.2-0.4-0.5-0.5-0.8C228.2,55.7,228.2,55.4,228.2,55.1z M229,55.1c0,0.2,0,0.4,0.1,0.6
	c0.1,0.2,0.2,0.4,0.3,0.5c0.1,0.1,0.3,0.3,0.5,0.3c0.2,0.1,0.4,0.1,0.6,0.1c0.2,0,0.4,0,0.6-0.1c0.2-0.1,0.4-0.2,0.5-0.3
	c0.3-0.3,0.4-0.7,0.4-1.1c0-0.2,0-0.4-0.1-0.6c-0.1-0.2-0.2-0.4-0.3-0.5c-0.3-0.3-0.7-0.4-1.1-0.4s-0.8,0.2-1.1,0.4
	c-0.1,0.2-0.3,0.3-0.3,0.5C229,54.7,229,54.9,229,55.1z"/>
<path class="st9" d="M237.5,56.3l0.3,0.6c-0.2,0.2-0.4,0.3-0.6,0.4c-0.3,0.1-0.6,0.1-0.8,0.1c-0.3,0-0.6,0-0.9-0.1
	c-0.3-0.1-0.6-0.3-0.8-0.5c-0.2-0.2-0.4-0.5-0.5-0.8c-0.1-0.3-0.2-0.6-0.1-0.9c0-0.6,0.2-1.2,0.6-1.7c0.4-0.4,1-0.7,1.7-0.7
	c0.5,0,1,0.1,1.4,0.5l-0.4,0.6c-0.3-0.2-0.7-0.3-1-0.3c-0.2,0-0.4,0-0.6,0.1c-0.2,0.1-0.3,0.2-0.5,0.3c-0.3,0.3-0.4,0.7-0.4,1.2
	c0,0.2,0,0.4,0.1,0.6c0.1,0.2,0.2,0.4,0.3,0.5c0.1,0.1,0.3,0.3,0.5,0.3c0.2,0.1,0.4,0.1,0.6,0.1C236.8,56.7,237.2,56.5,237.5,56.3z"
	/>
<path class="st9" d="M240.2,53.6h-1.5v-0.7h3.7v0.7H241v3.8h-0.8L240.2,53.6z"/>
<path class="st9" d="M246.8,54.1l-2.4,3.2h-0.7v-4.5h0.8V56l2.4-3.2h0.7v4.5h-0.8V54.1z"/>
<g id="_x39_xvykq.tif">
	
		<image style="overflow:visible;" width="513" height="350" id="Layer_1_1_" xlink:href="830DEC6579E60C2A.png"  transform="matrix(0.1835 0 0 0.2378 0 -0.2394)">
	</image>
</g>
</svg>
