<svg width="18" height="15" viewBox="0 0 18 15" fill="none" xmlns="http://www.w3.org/2000/svg">
    <path d="M8.45448 8.97078C7.81884 8.62358 7.08985 8.42651 6.31493 8.42651H4.4732C3.67655 8.42651 2.92879 8.63494 2.2813 8.99992C0.919631 9.76645 0 11.2259 0 12.8997V14.2796H10.7881V12.8997C10.7881 11.2042 9.8448 9.7294 8.45448 8.97078Z" fill="#BABABD"/>
    <path d="M13.5406 7.20099H12.0095C11.1156 7.20099 10.2824 7.46522 9.5835 7.92059C9.91934 8.14087 10.2349 8.39819 10.5258 8.68909C11.6504 9.81369 12.2698 11.3092 12.2698 12.9V13.549H18.0004V11.6608C18.0004 9.20175 15.9997 7.20099 13.5406 7.20099Z" fill="#BABABD"/>
    <path d="M12.7718 0.493286C12.7639 0.493286 12.7557 0.493335 12.7478 0.493434C11.0904 0.507115 9.75376 1.93965 9.76818 3.6867C9.78255 5.42546 11.1296 6.83044 12.7763 6.83044C12.7842 6.83044 12.7923 6.83039 12.8002 6.83029C13.6129 6.82357 14.3713 6.4812 14.9357 5.86616C15.487 5.26539 15.7868 4.47377 15.7799 3.63702C15.7655 1.89827 14.4185 0.493286 12.7718 0.493286Z" fill="#BABABD"/>
    <path d="M5.39338 0C3.48251 0 1.92822 1.6422 1.92822 3.66123C1.92822 5.1202 2.74018 6.38259 3.91219 6.97032C4.36164 7.19603 4.86393 7.32198 5.39338 7.32198C5.92284 7.32198 6.42513 7.19603 6.87457 6.97032C8.04658 6.38259 8.85854 5.1202 8.85854 3.66123C8.85854 1.6422 7.30426 0 5.39338 0Z" fill="#BABABD"/>
</svg>
