<svg width="18" height="18" viewBox="0 0 18 18" fill="none" xmlns="http://www.w3.org/2000/svg">
    <path d="M15.364 2.63602C13.6641 0.936176 11.404 0 9 0C6.59602 0 4.33593 0.936176 2.63602 2.63602C0.936176 4.33593 0 6.59602 0 9C0 10.5857 0.416109 12.137 1.20537 13.5014L0 18L4.49856 16.7946C5.86297 17.5839 7.41428 18 9 18C11.404 18 13.6641 17.0638 15.364 15.364C17.0638 13.6641 18 11.404 18 9C18 6.59602 17.0638 4.33593 15.364 2.63602ZM9.52734 13.4824H8.47266V12.4277H9.52734V13.4824ZM10.965 8.91204L9.52734 10.5198V11.373H8.47266V10.1169L10.1789 8.20881C10.4389 7.91831 10.582 7.54386 10.582 7.1543C10.582 6.28196 9.87233 5.57227 9 5.57227C8.12767 5.57227 7.41797 6.28196 7.41797 7.1543H6.36328C6.36328 5.70041 7.54611 4.51758 9 4.51758C10.4539 4.51758 11.6367 5.70041 11.6367 7.1543C11.6367 7.80381 11.3981 8.42801 10.965 8.91204Z" fill="#007377"/>
</svg>
