<svg width="18" height="18" viewBox="0 0 18 18" fill="none" xmlns="http://www.w3.org/2000/svg">
    <path d="M7.87522 0C3.53294 0 0.000622426 2.87648 0.000622426 6.41217C0.000622426 8.20308 0.900576 9.88261 2.48899 11.0908C1.96365 11.9109 1.28418 12.7411 0.426975 12.9526C0.155864 13.0201 -0.0252512 13.2766 0.00287231 13.5544C0.0309959 13.8334 0.259359 14.0483 0.53947 14.0606C0.551844 14.0606 0.600216 14.0629 0.681212 14.0629C1.26281 14.0629 3.50819 13.9695 6.05618 12.6477C6.64003 12.7658 7.25087 12.8243 7.87522 12.8243C12.2164 12.8243 15.7498 9.94786 15.7498 6.41217C15.7498 2.87648 12.2164 0 7.87522 0Z" fill="#0F9B8C"/>
    <path d="M17.5722 16.8484C16.8556 16.6717 16.3134 16.1475 15.9343 15.6278C17.2538 14.594 17.9997 13.172 17.9997 11.6568C17.9997 10.3878 17.4665 9.22125 16.5811 8.28868C15.5811 11.5386 12.0634 13.9494 7.87521 13.9494C7.31611 13.9494 6.76377 13.9066 6.22717 13.8223C5.90768 13.9764 5.59495 14.1125 5.28784 14.234C6.42291 15.9777 8.66829 17.169 11.25 17.169C11.7776 17.169 12.2895 17.1206 12.7755 17.0261C14.3897 17.8484 15.8623 18.0003 16.7285 17.9992C17.2032 17.9992 17.4957 17.9542 17.5283 17.9486C17.7916 17.9058 17.9884 17.6831 17.9997 17.4165C18.0098 17.1498 17.8321 16.9114 17.5722 16.8484Z" fill="#39ACDE"/>
</svg>
