<svg width="20px" height="20px" viewBox="0 0 20 20" version="1.1" xmlns="http://www.w3.org/2000/svg" xmlns:xlink="http://www.w3.org/1999/xlink">
    <!-- Generator: Sketch 51.3 (57544) - http://www.bohemiancoding.com/sketch -->
    <desc>Created with Sketch.</desc>
    <defs></defs>
    <g id="Var-6-For-dev" stroke="none" stroke-width="1" fill="none" fill-rule="evenodd">
        <g id="Display-4" transform="translate(-447.000000, -6.000000)" fill="#39ACDE" fill-rule="nonzero">
            <g id="Group-14" transform="translate(0.000000, -39.000000)">
                <g id="whh-feedlyalt" transform="translate(447.000000, 45.000000)">
                    <g id="Icon">
                        <path d="M17.4232847,20 L2.49617104,20 C1.80942015,20 1.22309038,19.7570457 0.73718173,19.271137 C0.251273081,18.7852284 0.00831875607,18.1988986 0.00831875607,17.5121477 L0.00831875607,2.58503401 C0.00831875607,1.89828312 0.251273081,1.31195335 0.73718173,0.826044704 C1.22309038,0.340136054 1.80942015,0.0971817298 2.49617104,0.0971817298 L17.4232847,0.0971817298 C18.1100356,0.0971817298 18.6963654,0.340136054 19.1822741,0.826044704 C19.6681827,1.31195335 19.911137,1.89828312 19.911137,2.58503401 L19.911137,17.5121477 C19.911137,18.1988986 19.6681827,18.7852284 19.1822741,19.271137 C18.6963654,19.7570457 18.1100356,20 17.4232847,20 Z M13.5748882,4.17881438 L12.0588533,2.68221574 C11.9940654,2.61742792 11.9130807,2.58503401 11.8158989,2.58503401 C11.7187172,2.58503401 11.6377324,2.61742792 11.5729446,2.68221574 L5.08120505,9.1350826 C5.00345967,9.21282799 4.96458698,9.30029155 4.96458698,9.39747328 C4.96458698,9.494655 5.00345967,9.58211856 5.08120505,9.65986395 L6.22794947,10.6705539 L7.47187561,10.6705539 L13.5748882,4.68415938 C13.6526336,4.61937156 13.6915063,4.53838678 13.6915063,4.44120505 C13.6915063,4.34402332 13.6526336,4.25655977 13.5748882,4.17881438 Z M13.5748882,10.223518 L12.0588533,8.70748299 C11.9940654,8.64269517 11.9130807,8.61030126 11.8158989,8.61030126 C11.7187172,8.61030126 11.6377324,8.64269517 11.5729446,8.70748299 L7.64680272,12.6141885 C7.56905734,12.6789764 7.53018465,12.7599611 7.53018465,12.8571429 C7.53018465,12.9543246 7.56905734,13.0417881 7.64680272,13.1195335 L8.71580175,14.4023324 L9.95972789,14.4023324 L13.5748882,10.728863 C13.6526336,10.6511176 13.6915063,10.563654 13.6915063,10.4664723 C13.6915063,10.3692906 13.6526336,10.2883058 13.5748882,10.223518 Z M13.5748882,16.1321672 L12.0588533,14.4995141 C11.9940654,14.4217687 11.9130807,14.382896 11.8158989,14.382896 C11.7187172,14.382896 11.6312536,14.4217687 11.5535083,14.4995141 L10.0374733,16.1321672 C9.97268546,16.2099125 9.94029155,16.3038549 9.94029155,16.4139942 C9.94029155,16.5241335 9.97268546,16.611597 10.0374733,16.6763848 L11.203654,17.5121477 L12.4475802,17.5121477 L13.5748882,16.6763848 C13.6526336,16.611597 13.6915063,16.5241335 13.6915063,16.4139942 C13.6915063,16.3038549 13.6526336,16.2099125 13.5748882,16.1321672 Z" id="Icon-Shape"></path>
                        <rect id="Icon-Rectangle-path" fill-opacity="0" x="0" y="0" width="19.9222546" height="19.9028183"></rect>
                    </g>
                </g>
            </g>
        </g>
    </g>
</svg>