<svg width="18" height="20" viewBox="0 0 18 20" fill="none" xmlns="http://www.w3.org/2000/svg">
    <path d="M17.3571 13.5H11.5714C11.4009 13.5 11.2374 13.5677 11.1169 13.6883C10.9963 13.8088 10.9286 13.9724 10.9286 14.1429C10.9286 14.6543 10.7254 15.1449 10.3637 15.5066C10.002 15.8682 9.51149 16.0714 9 16.0714C8.48851 16.0714 7.99797 15.8682 7.63629 15.5066C7.27462 15.1449 7.07143 14.6543 7.07143 14.1429C7.07143 13.9724 7.0037 13.8088 6.88314 13.6883C6.76258 13.5677 6.59907 13.5 6.42857 13.5H0.642857C0.472361 13.5 0.308848 13.5677 0.188288 13.6883C0.0677294 13.8088 0 13.9724 0 14.1429V16.7143C0.000744451 17.396 0.271901 18.0497 0.753976 18.5317C1.23605 19.0138 1.88967 19.285 2.57143 19.2857H15.4286C16.1103 19.285 16.7639 19.0138 17.246 18.5317C17.7281 18.0497 17.9993 17.396 18 16.7143V14.1429C18 13.9724 17.9323 13.8088 17.8117 13.6883C17.6912 13.5677 17.5276 13.5 17.3571 13.5Z" fill="#39ACDE"/>
    <path d="M17.9783 6.90589L16.6986 2.10737C16.4439 0.787098 15.4904 0 14.1429 0H3.85714C3.18214 0 2.61161 0.188438 2.16563 0.560089C1.71964 0.931741 1.43277 1.44643 1.30179 2.10536L0.0216966 6.90589C0.00725452 6.95989 -3.99369e-05 7.01554 1.64443e-07 7.07143V9C1.64443e-07 10.4179 1.15353 12.2143 2.57143 12.2143H15.4286C16.8465 12.2143 18 10.4179 18 9V7.07143C18 7.01554 17.9927 6.95989 17.9783 6.90589ZM16.4158 6.42857H11.5714C11.4019 6.42772 11.239 6.49418 11.1185 6.61336C10.9979 6.73254 10.9296 6.89469 10.9286 7.0642C10.9286 7.57569 10.7254 8.06623 10.3637 8.4279C10.002 8.78958 9.51149 8.99277 9 8.99277C8.48851 8.99277 7.99797 8.78958 7.63629 8.4279C7.27462 8.06623 7.07143 7.57569 7.07143 7.0642C7.07037 6.89469 7.00206 6.73254 6.88153 6.61336C6.76099 6.49418 6.59808 6.42772 6.42857 6.42857H1.58424C1.57191 6.42856 1.55975 6.42572 1.54869 6.42026C1.53764 6.4148 1.52799 6.40686 1.52049 6.39707C1.513 6.38729 1.50785 6.3759 1.50546 6.36381C1.50307 6.35171 1.50349 6.33923 1.5067 6.32732L2.55978 2.37054C2.70241 1.63085 3.11464 1.28571 3.85714 1.28571H14.1429C14.8898 1.28571 15.3016 1.62844 15.4386 2.36451L16.4933 6.32732C16.4965 6.33923 16.4969 6.35171 16.4945 6.36381C16.4921 6.3759 16.487 6.38729 16.4795 6.39707C16.472 6.40686 16.4624 6.4148 16.4513 6.42026C16.4403 6.42572 16.4281 6.42856 16.4158 6.42857Z" fill="#39ACDE"/>
</svg>
