<?xml version="1.0" encoding="utf-8"?>
<!-- Generator: Adobe Illustrator 23.0.4, SVG Export Plug-In . SVG Version: 6.00 Build 0)  -->
<svg version="1.1" width="20" height="20" id="Layer_1" xmlns="http://www.w3.org/2000/svg" xmlns:xlink="http://www.w3.org/1999/xlink" x="0px" y="0px"
	 viewBox="0 0 18 18" style="enable-background:new 0 0 18 18;" xml:space="preserve">
<style type="text/css">
	.st0{fill:#39ACDE;}
</style>
<path class="st0" d="M18,9c0-2.4-0.9-4.7-2.6-6.4C13.7,0.9,11.4,0,9,0C7.7,0,6.4,0.3,5.2,0.8C4.7,1.1,4.2,1.1,3.7,1L3.4,0.9
	c-1.5-0.4-2.9,1-2.5,2.5L1,3.7c0.1,0.5,0.1,1-0.2,1.5C0.3,6.4,0,7.7,0,9c0,2.4,0.9,4.7,2.6,6.4C4.3,17.1,6.6,18,9,18
	c2.4,0,4.7-0.9,6.4-2.6C17.1,13.7,18,11.4,18,9z M10.7,11H7.3c-0.9,0-1.7-0.7-1.7-1.7V8.7C5.6,7.7,6.4,7,7.3,7h3.4
	c0.9,0,1.7,0.7,1.7,1.7v0.7C12.4,10.3,11.6,11,10.7,11z"/>
</svg>
