<svg version="1.1" id="Layer_1" xmlns="http://www.w3.org/2000/svg" xmlns:xlink="http://www.w3.org/1999/xlink" x="0" y="0" viewBox="0 0 122 92.6" xml:space="preserve"><defs><path id="SVGID_1_" d="M0 0H122V92.6H0z"/></defs><clipPath id="SVGID_2_"><use xlink:href="#SVGID_1_" overflow="visible"/></clipPath><path clip-path="url(#SVGID_2_)" fill="#37424F" d="M47.5,79.5c4,0,7.3-3.2,7.3-7.2v-0.1h-0.7v0.1c0,3.5-2.9,6.4-6.4,6.5h-0.3 c-3.6,0-6.5-2.9-6.5-6.5v-0.1h-0.7v0.1C40.3,76.3,43.5,79.5,47.5,79.5"/><path clip-path="url(#SVGID_2_)" fill="#37424F" d="M47.5,82.8c5.8,0,10.5-4.7,10.6-10.5v-0.1h-0.8v0.1c0,5.4-4.4,9.8-9.8,9.8 s-9.8-4.4-9.8-9.8v-0.1h-0.8v0.1C37,78.1,41.7,82.8,47.5,82.8"/><path clip-path="url(#SVGID_2_)" fill="#37424F" d="M47.5,86.1c7.6,0,13.8-6.1,13.8-13.8v-0.1h-0.7v0.1c0,7.2-5.9,13.1-13.1,13.1 c-7.2,0-13.1-5.9-13.1-13.1v-0.1h-0.7v0.1C33.8,79.9,39.9,86.1,47.5,86.1"/><path clip-path="url(#SVGID_2_)" fill="#37424F" d="M47.5,89.3c9.4,0,17-7.6,17.1-17v-0.1h-0.7v0.1c0,9-7.3,16.3-16.3,16.3 c-9,0-16.3-7.3-16.3-16.3v-0.1h-0.7v0.1C30.5,81.7,38.1,89.3,47.5,89.3"/><path clip-path="url(#SVGID_2_)" fill="#37424F" d="M67.1,72.1v0.2c0,10.8-8.8,19.6-19.6,19.6C36.7,91.9,28,83.1,28,72.3v-0.1h-0.7 v0.1c0,11.2,9.1,20.3,20.3,20.3c11.2,0,20.3-9.1,20.3-20.3v-0.1L67.1,72.1z"/><path clip-path="url(#SVGID_2_)" fill="#37424F" d="M74.4,13c-4,0-7.3,3.3-7.3,7.3v0.1h0.7v-0.1c0-3.6,3-6.6,6.6-6.6 c3.6,0,6.6,3,6.6,6.6v21.4h0.7V20.3C81.8,16.3,78.5,13,74.4,13"/><path clip-path="url(#SVGID_2_)" fill="#37424F" d="M74.4,9.7c-5.8,0-10.6,4.7-10.6,10.6v0.1h0.7v-0.1c0-5.3,4.2-9.6,9.5-9.8h0.6 c5.3,0.1,9.6,4.5,9.6,9.8v21.5H85V20.3C85,14.5,80.3,9.7,74.4,9.7"/><path clip-path="url(#SVGID_2_)" fill="#37424F" d="M74.4,6.5c-7.6,0-13.8,6.2-13.8,13.8v0.1h0.7v-0.1c0-7.2,5.9-13.1,13.1-13.1 c7.2,0,13.1,5.9,13.1,13.1v21.5h0.7V20.3C88.2,12.7,82.1,6.5,74.4,6.5"/><path clip-path="url(#SVGID_2_)" fill="#37424F" d="M74.4,3.2c-9.4,0-17.1,7.7-17.1,17.1v0.1h0.7v-0.1c0-9,7.3-16.3,16.3-16.3 c9,0,16.3,7.3,16.3,16.3v21.5h0.8V20.3C91.5,10.9,83.9,3.3,74.4,3.2"/><path clip-path="url(#SVGID_2_)" fill="#37424F" d="M74.4,0C63.3,0,54.2,9.1,54.2,20.3v0.1h0.7v-0.1c0-10.8,8.8-19.6,19.6-19.6 c10.8,0,19.6,8.8,19.6,19.6v21.5h0.7V20.3C94.8,9.1,85.7,0,74.4,0L74.4,0z"/><defs><path id="SVGID_3_" d="M20.3,31.8c-4.2,0.2-7.5,3.8-7.3,8v32.4v0c0,0.4,0.3,0.7,0.7,0.7c0.4,0,0.7-0.3,0.7-0.7V39.8 c0-0.2,0-0.4,0-0.6c0.2-3.5,3.1-6.1,6.6-6c3.5,0.2,6.1,3.1,6,6.6v32.4c0,0.4,0.3,0.7,0.7,0.7c0.4,0,0.7-0.3,0.7-0.7V39.8 c0-0.2,0-0.4,0-0.7c-0.2-4.1-3.6-7.3-7.6-7.3C20.5,31.8,20.4,31.8,20.3,31.8"/></defs><clipPath id="SVGID_4_"><use xlink:href="#SVGID_3_" overflow="visible"/></clipPath><linearGradient id="SVGID_5_" gradientUnits="userSpaceOnUse" x1="0" y1="92.614" x2="1" y2="92.614" gradientTransform="rotate(14.598 48027.913 6176.008) scale(133.3479)"><stop offset="0" stop-color="#00d580"/><stop offset=".34" stop-color="#00d6d7"/><stop offset="1" stop-color="#50c420"/></linearGradient><path clip-path="url(#SVGID_4_)" fill="url(#SVGID_5_)" d="M2.8 70.2L27.3 76.6 38.3 34.4 13.8 28z"/><defs><path id="SVGID_6_" d="M9.7,39.8v15.8c0,0.4,0.3,0.7,0.7,0.7c0.4,0,0.7-0.3,0.7-0.7V39.8c0-5.3,4.3-9.5,9.5-9.5 c5.3,0,9.5,4.3,9.5,9.5v21c0,0.4,0.3,0.7,0.7,0.7c0,0,0,0,0.1,0c0.4,0,0.7-0.4,0.6-0.7v-21c0-6-4.9-10.9-10.9-10.9 S9.7,33.8,9.7,39.8"/></defs><clipPath id="SVGID_7_"><use xlink:href="#SVGID_6_" overflow="visible"/></clipPath><linearGradient id="SVGID_8_" gradientUnits="userSpaceOnUse" x1="0" y1="92.63" x2="1" y2="92.63" gradientTransform="rotate(14.597 48073.648 6181.214) scale(133.3619)"><stop offset="0" stop-color="#00d580"/><stop offset=".34" stop-color="#00d6d7"/><stop offset="1" stop-color="#50c420"/></linearGradient><path clip-path="url(#SVGID_7_)" fill="url(#SVGID_8_)" d="M1.8 59.4L30.1 66.8 39.5 31 11.1 23.6z"/><defs><path id="SVGID_9_" d="M9.7,60.6v11.6c0,0.4,0.3,0.7,0.7,0.7c0.4,0,0.7-0.3,0.7-0.7V60.6c0-0.4-0.3-0.7-0.7-0.7 C10,59.9,9.7,60.2,9.7,60.6"/></defs><clipPath id="SVGID_10_"><use xlink:href="#SVGID_9_" overflow="visible"/></clipPath><linearGradient id="SVGID_11_" gradientUnits="userSpaceOnUse" x1="0" y1="92.62" x2="1" y2="92.62" gradientTransform="rotate(14.597 47978.02 6168.955) scale(133.3619)"><stop offset="0" stop-color="#00d580"/><stop offset=".34" stop-color="#00d6d7"/><stop offset="1" stop-color="#50c420"/></linearGradient><path clip-path="url(#SVGID_10_)" fill="url(#SVGID_11_)" d="M6.6 72L11 73.2 14.2 60.7 9.8 59.6z"/><defs><path id="SVGID_12_" d="M31.8,32.3C31.8,32.3,31.8,32.3,31.8,32.3c-0.4,0.2-0.5,0.6-0.3,0.9c1.2,2,1.8,4.3,1.8,6.6v32.4 c0,0.4,0.3,0.7,0.7,0.7c0.4,0,0.6-0.3,0.6-0.7V39.8c0-2.6-0.7-5.1-2-7.3c0,0,0,0,0,0c-0.1-0.2-0.3-0.3-0.6-0.3 C32,32.1,31.9,32.2,31.8,32.3"/></defs><clipPath id="SVGID_13_"><use xlink:href="#SVGID_12_" overflow="visible"/></clipPath><linearGradient id="SVGID_14_" gradientUnits="userSpaceOnUse" x1="0" y1="92.62" x2="1" y2="92.62" gradientTransform="rotate(14.591 48071.666 6178.49) scale(133.3583)"><stop offset="0" stop-color="#00d580"/><stop offset=".34" stop-color="#00d6d7"/><stop offset="1" stop-color="#50c420"/></linearGradient><path clip-path="url(#SVGID_13_)" fill="url(#SVGID_14_)" d="M21.4 70.3L34.5 73.7 44.7 34.7 31.6 31.3z"/><defs><path id="SVGID_15_" d="M20.7,25.6c-7.8,0-14.1,6.3-14.1,14.1v31.7c0,0.4,0.3,0.7,0.7,0.7c0.3,0,0.6-0.3,0.6-0.7V39.8 c0-3.2,1.2-6.3,3.4-8.7c4.8-5.2,12.9-5.5,18-0.7c0.3,0.3,0.7,0.2,1,0c0.3-0.3,0.2-0.7,0-1C27.6,27,24.2,25.6,20.7,25.6 C20.7,25.6,20.7,25.6,20.7,25.6"/></defs><clipPath id="SVGID_16_"><use xlink:href="#SVGID_15_" overflow="visible"/></clipPath><linearGradient id="SVGID_17_" gradientUnits="userSpaceOnUse" x1="0" y1="92.612" x2="1" y2="92.612" gradientTransform="rotate(14.592 48056.805 6177.197) scale(133.3442)"><stop offset="0" stop-color="#00d580"/><stop offset=".34" stop-color="#00d6d7"/><stop offset="1" stop-color="#50c420"/></linearGradient><path clip-path="url(#SVGID_16_)" fill="url(#SVGID_17_)" d="M-4.8 69.2L29 78 41.8 28.5 8.1 19.7z"/><defs><path id="SVGID_18_" d="M20.6,22.4c-9.6,0-17.4,7.8-17.4,17.4c0,0.4,0.3,0.7,0.7,0.7c0.4,0,0.7-0.3,0.7-0.7c0-8.9,7.2-16,16-16 s16,7.2,16,16v32.4c0,0.4,0.3,0.7,0.7,0.7c0.4,0,0.6-0.3,0.6-0.7V39.8v0C37.9,30.2,30.2,22.4,20.6,22.4L20.6,22.4"/></defs><clipPath id="SVGID_19_"><use xlink:href="#SVGID_18_" overflow="visible"/></clipPath><linearGradient id="SVGID_20_" gradientUnits="userSpaceOnUse" x1="0" y1="92.638" x2="1" y2="92.638" gradientTransform="rotate(14.592 48076.581 6179.741) scale(133.3442)"><stop offset="0" stop-color="#00d580"/><stop offset=".34" stop-color="#00d6d7"/><stop offset="1" stop-color="#50c420"/></linearGradient><path clip-path="url(#SVGID_19_)" fill="url(#SVGID_20_)" d="M-9.1 69.6L35.7 81.3 50.2 25.6 5.4 14z"/><defs><path id="SVGID_21_" d="M39.9,51.5v20.7c0,0.4,0.3,0.7,0.7,0.7c0.4,0,0.7-0.3,0.7-0.7V51.5c0-0.4-0.3-0.7-0.7-0.7 C40.2,50.8,39.9,51.1,39.9,51.5"/></defs><clipPath id="SVGID_22_"><use xlink:href="#SVGID_21_" overflow="visible"/></clipPath><linearGradient id="SVGID_23_" gradientUnits="userSpaceOnUse" x1="0" y1="92.62" x2="1" y2="92.62" gradientTransform="rotate(14.591 48043.661 6174.756) scale(133.3583)"><stop offset="0" stop-color="#00d580"/><stop offset=".34" stop-color="#00d6d7"/><stop offset="1" stop-color="#50c420"/></linearGradient><path clip-path="url(#SVGID_22_)" fill="url(#SVGID_23_)" d="M34.5 71.4L41.2 73.2 46.6 52.2 40 50.5z"/><defs><path id="SVGID_24_" d="M19.9,19.8c0,0.4,0.3,0.7,0.7,0.7c10.6,0,19.3,8.6,19.3,19.3v7.1c0,0.4,0.3,0.7,0.7,0.7 c0.4,0,0.7-0.3,0.7-0.7v-7.1c0-11.4-9.2-20.6-20.6-20.6C20.2,19.1,19.9,19.5,19.9,19.8"/></defs><clipPath id="SVGID_25_"><use xlink:href="#SVGID_24_" overflow="visible"/></clipPath><linearGradient id="SVGID_26_" gradientUnits="userSpaceOnUse" x1="0" y1="92.622" x2="1" y2="92.622" gradientTransform="rotate(14.598 48113.522 6186.943) scale(133.3479)"><stop offset="0" stop-color="#00d580"/><stop offset=".34" stop-color="#00d6d7"/><stop offset="1" stop-color="#50c420"/></linearGradient><path clip-path="url(#SVGID_25_)" fill="url(#SVGID_26_)" d="M13 45.8L39.9 52.8 48.2 21 21.3 13.9z"/><defs><path id="SVGID_27_" d="M15.4,19.8C6.3,22.2,0,30.4,0,39.8v32.4c0,0.4,0.3,0.7,0.7,0.7c0.4,0,0.7-0.3,0.7-0.7V39.8 c0-8.8,5.9-16.4,14.4-18.6c0.4-0.1,0.6-0.5,0.5-0.8c0,0,0,0,0,0c-0.1-0.3-0.4-0.5-0.7-0.5C15.5,19.8,15.4,19.8,15.4,19.8"/></defs><clipPath id="SVGID_28_"><use xlink:href="#SVGID_27_" overflow="visible"/></clipPath><linearGradient id="SVGID_29_" gradientUnits="userSpaceOnUse" x1="0" y1="92.62" x2="1" y2="92.62" gradientTransform="rotate(14.597 48051.556 6178.368) scale(133.3619)"><stop offset="0" stop-color="#00d580"/><stop offset=".34" stop-color="#00d6d7"/><stop offset="1" stop-color="#50c420"/></linearGradient><path clip-path="url(#SVGID_28_)" fill="url(#SVGID_29_)" d="M-12.9 69.5L15.3 76.8 29.2 23.2 1 15.8z"/><defs><path id="SVGID_30_" d="M93.7,41.6v12.2c0,0.4,0.3,0.7,0.7,0.7c0.4,0,0.7-0.3,0.7-0.7V41.6c0-0.4-0.3-0.7-0.7-0.7 C94,41,93.7,41.3,93.7,41.6"/></defs><clipPath id="SVGID_31_"><use xlink:href="#SVGID_30_" overflow="visible"/></clipPath><linearGradient id="SVGID_32_" gradientUnits="userSpaceOnUse" x1="0" y1="92.62" x2="1" y2="92.62" gradientTransform="rotate(14.594 55297.306 7046.416) scale(153.1311)"><stop offset="0" stop-color="#00d580"/><stop offset=".34" stop-color="#00d6d7"/><stop offset="1" stop-color="#50c420"/></linearGradient><path clip-path="url(#SVGID_31_)" fill="url(#SVGID_32_)" d="M90.4 53.7L95 54.9 98.4 41.8 93.8 40.6z"/><defs><path id="SVGID_33_" d="M107.7,20.5v33.4c0,1.6-0.6,3-1.6,4.2c-2.3,2.6-6.3,2.8-8.9,0.5c-0.3-0.3-0.7-0.2-1,0.1 c-0.3,0.3-0.2,0.7,0,1c1.4,1.3,3.2,2,5.1,2c4.2,0,7.7-3.4,7.7-7.7V20.5c0-0.4-0.3-0.7-0.7-0.7S107.7,20.1,107.7,20.5"/></defs><clipPath id="SVGID_34_"><use xlink:href="#SVGID_33_" overflow="visible"/></clipPath><linearGradient id="SVGID_35_" gradientUnits="userSpaceOnUse" x1="0" y1="92.623" x2="1" y2="92.623" gradientTransform="rotate(14.597 48167.594 6193.23) scale(133.3619)"><stop offset="0" stop-color="#00d580"/><stop offset=".34" stop-color="#00d6d7"/><stop offset="1" stop-color="#50c420"/></linearGradient><path clip-path="url(#SVGID_34_)" fill="url(#SVGID_35_)" d="M85.8 58.9L108.2 64.7 119.2 22.5 96.8 16.6z"/><defs><path id="SVGID_36_" d="M110.9,40.9v13c0,5.3-4.3,9.5-9.5,9.5c-5.3,0-9.5-4.3-9.5-9.5V41.6c0-0.4-0.3-0.7-0.7-0.7 c-0.4,0-0.7,0.3-0.7,0.7v12.2c0,6,4.9,10.9,10.9,10.9c6,0,10.9-4.9,10.9-10.9v-13c0-0.4-0.3-0.7-0.7-0.7S110.9,40.5,110.9,40.9"/></defs><clipPath id="SVGID_37_"><use xlink:href="#SVGID_36_" overflow="visible"/></clipPath><linearGradient id="SVGID_38_" gradientUnits="userSpaceOnUse" x1="0" y1="92.628" x2="1" y2="92.628" gradientTransform="rotate(14.594 49285.405 6324.135) scale(136.5432)"><stop offset="0" stop-color="#00d580"/><stop offset=".34" stop-color="#00d6d7"/><stop offset="1" stop-color="#50c420"/></linearGradient><path clip-path="url(#SVGID_37_)" fill="url(#SVGID_38_)" d="M84.5 63.2L110.9 70.1 118.3 41.8 91.9 34.9z"/><defs><path id="SVGID_39_" d="M110.9,20.5v15.7c0,0.4,0.3,0.7,0.7,0.7c0,0,0,0,0.1,0c0.4,0,0.7-0.4,0.6-0.7V20.5c0-0.4-0.3-0.7-0.7-0.7 S110.9,20.1,110.9,20.5"/></defs><clipPath id="SVGID_40_"><use xlink:href="#SVGID_39_" overflow="visible"/></clipPath><linearGradient id="SVGID_41_" gradientUnits="userSpaceOnUse" x1="0" y1="92.62" x2="1" y2="92.62" gradientTransform="rotate(14.591 48239.965 6199.827) scale(133.3583)"><stop offset="0" stop-color="#00d580"/><stop offset=".34" stop-color="#00d6d7"/><stop offset="1" stop-color="#50c420"/></linearGradient><path clip-path="url(#SVGID_40_)" fill="url(#SVGID_41_)" d="M106.7 35.8L112.2 37.2 116.4 20.9 111 19.5z"/><defs><path id="SVGID_42_" d="M87.2,41.6v12.2c0,7.8,6.3,14.1,14.1,14.1c5.2,0,10-2.8,12.5-7.4c0.2-0.3,0-0.7-0.3-0.9c0,0,0,0,0,0 c-0.3-0.2-0.7-0.1-0.9,0.3c-2.2,4.2-6.6,6.7-11.3,6.7c-7.1,0-12.8-5.8-12.7-12.8V41.6c0-0.4-0.3-0.7-0.7-0.7 C87.5,41,87.2,41.3,87.2,41.6"/></defs><clipPath id="SVGID_43_"><use xlink:href="#SVGID_42_" overflow="visible"/></clipPath><linearGradient id="SVGID_44_" gradientUnits="userSpaceOnUse" x1="0" y1="92.607" x2="1" y2="92.607" gradientTransform="rotate(14.595 49029.895 6293.96) scale(135.9014)"><stop offset="0" stop-color="#00d580"/><stop offset=".34" stop-color="#00d6d7"/><stop offset="1" stop-color="#50c420"/></linearGradient><path clip-path="url(#SVGID_43_)" fill="url(#SVGID_44_)" d="M80.6 66.3L112.3 74.5 120.6 42.7 88.9 34.4z"/><defs><path id="SVGID_45_" d="M114.1,20.5v33.4c0,0.4,0.3,0.7,0.7,0.7c0.4,0,0.7-0.3,0.7-0.7V20.5c0-0.4-0.3-0.7-0.7-0.7 C114.5,19.8,114.1,20.1,114.1,20.5"/></defs><clipPath id="SVGID_46_"><use xlink:href="#SVGID_45_" overflow="visible"/></clipPath><linearGradient id="SVGID_47_" gradientUnits="userSpaceOnUse" x1="0" y1="92.62" x2="1" y2="92.62" gradientTransform="rotate(14.598 48180.73 6195.61) scale(133.3479)"><stop offset="0" stop-color="#00d580"/><stop offset=".34" stop-color="#00d6d7"/><stop offset="1" stop-color="#50c420"/></linearGradient><path clip-path="url(#SVGID_46_)" fill="url(#SVGID_47_)" d="M105.7 52.4L115.4 54.9 124 22 114.2 19.5z"/><defs><path id="SVGID_48_" d="M84,41.6v12.3c0,9.6,7.8,17.4,17.4,17.4c0.4,0,0.7-0.3,0.7-0.7c0-0.4-0.3-0.7-0.7-0.7c-8.8,0-16-7.2-16-16 V41.6c0-0.4-0.3-0.7-0.7-0.7C84.3,41,84,41.3,84,41.6"/></defs><clipPath id="SVGID_49_"><use xlink:href="#SVGID_48_" overflow="visible"/></clipPath><linearGradient id="SVGID_50_" gradientUnits="userSpaceOnUse" x1="0" y1="92.618" x2="1" y2="92.618" gradientTransform="rotate(14.591 49256.242 6319.873) scale(136.5116)"><stop offset="0" stop-color="#00d580"/><stop offset=".34" stop-color="#00d6d7"/><stop offset="1" stop-color="#50c420"/></linearGradient><path clip-path="url(#SVGID_49_)" fill="url(#SVGID_50_)" d="M76.6 69.3L100.9 75.7 109.4 42.9 85.2 36.6z"/><defs><path id="SVGID_51_" d="M117.4,21.4v32.5c0,6.4-3.8,12.3-9.8,14.8c-0.3,0.1-0.5,0.5-0.4,0.9c0.1,0.3,0.4,0.4,0.6,0.4 c0.1,0,0.2,0,0.3-0.1c6.4-2.7,10.6-9,10.6-16V21.4c0-0.4-0.3-0.7-0.7-0.7C117.7,20.7,117.4,21,117.4,21.4"/></defs><clipPath id="SVGID_52_"><use xlink:href="#SVGID_51_" overflow="visible"/></clipPath><linearGradient id="SVGID_53_" gradientUnits="userSpaceOnUse" x1="0" y1="92.62" x2="1" y2="92.62" gradientTransform="rotate(14.591 48177.286 6191.826) scale(133.3583)"><stop offset="0" stop-color="#00d580"/><stop offset=".34" stop-color="#00d6d7"/><stop offset="1" stop-color="#50c420"/></linearGradient><path clip-path="url(#SVGID_52_)" fill="url(#SVGID_53_)" d="M95.1 66.8L118 72.8 130.8 23.8 107.8 17.9z"/><defs><path id="SVGID_54_" d="M81.4,41c-0.4,0-0.7,0.3-0.7,0.7v12.2c0,0.4,0.3,0.7,0.7,0.7c0.4,0,0.7-0.3,0.7-0.7V41.6v0 C82.1,41.3,81.8,41,81.4,41L81.4,41"/></defs><clipPath id="SVGID_55_"><use xlink:href="#SVGID_54_" overflow="visible"/></clipPath><linearGradient id="SVGID_56_" gradientUnits="userSpaceOnUse" x1="0" y1="92.62" x2="1" y2="92.62" gradientTransform="rotate(14.594 55283.6 7052.07) scale(153.1311)"><stop offset="0" stop-color="#00d580"/><stop offset=".34" stop-color="#00d6d7"/><stop offset="1" stop-color="#50c420"/></linearGradient><path clip-path="url(#SVGID_55_)" fill="url(#SVGID_56_)" d="M77.4 53.7L82 54.9 85.4 41.8 80.8 40.6z"/><defs><path id="SVGID_57_" d="M82.3,59.4c-0.4,0.1-0.6,0.4-0.5,0.8c2.7,8.5,10.7,14.3,19.6,14.3c8.6,0,16.2-5.3,19.3-13.3 c0.1-0.4,0-0.7-0.4-0.9c-0.4-0.1-0.7,0-0.9,0.4c-2.1,5.5-6.5,9.7-12.1,11.5C97.1,75.5,86.3,70,83,59.8c-0.1-0.3-0.4-0.4-0.6-0.4 C82.4,59.4,82.3,59.4,82.3,59.4"/></defs><clipPath id="SVGID_58_"><use xlink:href="#SVGID_57_" overflow="visible"/></clipPath><linearGradient id="SVGID_59_" gradientUnits="userSpaceOnUse" x1="0" y1="92.636" x2="1" y2="92.636" gradientTransform="rotate(14.597 48071.527 6180.932) scale(133.3619)"><stop offset="0" stop-color="#00d580"/><stop offset=".34" stop-color="#00d6d7"/><stop offset="1" stop-color="#50c420"/></linearGradient><path clip-path="url(#SVGID_58_)" fill="url(#SVGID_59_)" d="M77.7 74.5L118.3 85.1 124.8 60.4 84.1 49.9z"/><defs><path id="SVGID_60_" d="M120.6,20.5v33.4c0,0.4,0.3,0.7,0.7,0.7c0.4,0,0.7-0.3,0.7-0.7V20.5c0-0.4-0.3-0.7-0.7-0.7 S120.6,20.1,120.6,20.5"/></defs><clipPath id="SVGID_61_"><use xlink:href="#SVGID_60_" overflow="visible"/></clipPath><linearGradient id="SVGID_62_" gradientUnits="userSpaceOnUse" x1="0" y1="92.62" x2="1" y2="92.62" gradientTransform="rotate(14.591 48216.227 6196.893) scale(133.3583)"><stop offset="0" stop-color="#00d580"/><stop offset=".34" stop-color="#00d6d7"/><stop offset="1" stop-color="#50c420"/></linearGradient><path clip-path="url(#SVGID_61_)" fill="url(#SVGID_62_)" d="M112.2 52.4L121.9 54.9 130.5 22 120.7 19.5z"/><defs><path id="SVGID_63_" d="M53.8,42.2v29.9c0,0.4,0.3,0.7,0.7,0.7c0.4,0,0.7-0.3,0.7-0.7V42.2c0-0.4-0.3-0.7-0.7-0.7 C54.1,41.5,53.8,41.9,53.8,42.2"/></defs><clipPath id="SVGID_64_"><use xlink:href="#SVGID_63_" overflow="visible"/></clipPath><linearGradient id="SVGID_65_" gradientUnits="userSpaceOnUse" x1="0" y1="92.62" x2="1" y2="92.62" gradientTransform="rotate(14.598 48045.782 6178.275) scale(133.3479)"><stop offset="0" stop-color="#00d580"/><stop offset=".34" stop-color="#00d6d7"/><stop offset="1" stop-color="#50c420"/></linearGradient><path clip-path="url(#SVGID_64_)" fill="url(#SVGID_65_)" d="M46.2 70.9L55.1 73.2 62.8 43.5 53.9 41.2z"/><defs><path id="SVGID_66_" d="M53.8,20.3v18c0,0.4,0.3,0.7,0.7,0.7c0.4,0,0.7-0.3,0.7-0.7v-18c0-0.4-0.3-0.7-0.7-0.7 C54.1,19.6,53.8,19.9,53.8,20.3"/></defs><clipPath id="SVGID_67_"><use xlink:href="#SVGID_66_" overflow="visible"/></clipPath><linearGradient id="SVGID_68_" gradientUnits="userSpaceOnUse" x1="0" y1="92.62" x2="1" y2="92.62" gradientTransform="rotate(14.591 48180.22 6192.36) scale(133.3583)"><stop offset="0" stop-color="#00d580"/><stop offset=".34" stop-color="#00d6d7"/><stop offset="1" stop-color="#50c420"/></linearGradient><path clip-path="url(#SVGID_67_)" fill="url(#SVGID_68_)" d="M49.1 37.7L55.1 39.3 59.9 20.9 53.9 19.3z"/><g><defs><path id="SVGID_69_" d="M57.1,20.3v51.8c0,0.4,0.3,0.7,0.7,0.7c0.4,0,0.7-0.3,0.7-0.7V20.3c0-0.4-0.3-0.7-0.7-0.7 C57.4,19.6,57.1,19.9,57.1,20.3"/></defs><clipPath id="SVGID_70_"><use xlink:href="#SVGID_69_" overflow="visible"/></clipPath><linearGradient id="SVGID_71_" gradientUnits="userSpaceOnUse" x1="0" y1="92.62" x2="1" y2="92.62" gradientTransform="rotate(14.592 48109.136 6183.908) scale(133.3442)"><stop offset="0" stop-color="#00d580"/><stop offset=".34" stop-color="#00d6d7"/><stop offset="1" stop-color="#50c420"/></linearGradient><path clip-path="url(#SVGID_70_)" fill="url(#SVGID_71_)" d="M44.1 69.5L58.3 73.2 71.4 23 57.2 19.3z"/></g><g><defs><path id="SVGID_72_" d="M60.3,20.3v49.5c0,0.4,0.3,0.7,0.7,0.7c0.4,0,0.7-0.3,0.7-0.7V20.3c0-0.4-0.3-0.7-0.7-0.7 C60.6,19.6,60.3,19.9,60.3,20.3"/></defs><clipPath id="SVGID_73_"><use xlink:href="#SVGID_72_" overflow="visible"/></clipPath><linearGradient id="SVGID_74_" gradientUnits="userSpaceOnUse" x1="0" y1="92.62" x2="1" y2="92.62" gradientTransform="rotate(14.598 48098.054 6185.076) scale(133.3479)"><stop offset="0" stop-color="#00d580"/><stop offset=".34" stop-color="#00d6d7"/><stop offset="1" stop-color="#50c420"/></linearGradient><path clip-path="url(#SVGID_73_)" fill="url(#SVGID_74_)" d="M47.9 67.3L61.6 70.8 74.1 22.9 60.4 19.3z"/></g><g><defs><path id="SVGID_75_" d="M63.6,54.2v18c0,0.3,0.3,0.6,0.6,0.7c0,0,0.1,0,0.1,0c0.4,0,0.7-0.3,0.7-0.7v-18c0-0.4-0.3-0.7-0.7-0.7 C63.9,53.5,63.6,53.8,63.6,54.2"/></defs><clipPath id="SVGID_76_"><use xlink:href="#SVGID_75_" overflow="visible"/></clipPath><linearGradient id="SVGID_77_" gradientUnits="userSpaceOnUse" x1="0" y1="92.62" x2="1" y2="92.62" gradientTransform="rotate(14.591 48061.931 6177.156) scale(133.3583)"><stop offset="0" stop-color="#00d580"/><stop offset=".34" stop-color="#00d6d7"/><stop offset="1" stop-color="#50c420"/></linearGradient><path clip-path="url(#SVGID_76_)" fill="url(#SVGID_77_)" d="M58.9 71.6L64.9 73.2 69.7 54.8 63.7 53.2z"/></g><g><defs><path id="SVGID_78_" d="M63.6,20.3V47c0,0.4,0.3,0.7,0.7,0.7c0,0,0,0,0,0c0.4,0,0.7-0.3,0.7-0.7V20.3c0-0.4-0.3-0.7-0.7-0.7 C63.9,19.6,63.6,19.9,63.6,20.3"/></defs><clipPath id="SVGID_79_"><use xlink:href="#SVGID_78_" overflow="visible"/></clipPath><linearGradient id="SVGID_80_" gradientUnits="userSpaceOnUse" x1="0" y1="92.62" x2="1" y2="92.62" gradientTransform="rotate(14.591 48173.285 6191.426) scale(133.3583)"><stop offset="0" stop-color="#00d580"/><stop offset=".34" stop-color="#00d6d7"/><stop offset="1" stop-color="#50c420"/></linearGradient><path clip-path="url(#SVGID_79_)" fill="url(#SVGID_80_)" d="M56.7 45.9L64.8 48.1 71.8 21.4 63.6 19.3z"/></g><g><defs><path id="SVGID_81_" d="M67.5,31.8c-0.4,0-0.7,0.3-0.7,0.7v39.7c0,0.4,0.3,0.7,0.7,0.7c0.4,0,0.7-0.3,0.7-0.7V32.5 C68.2,32.1,67.9,31.8,67.5,31.8C67.5,31.8,67.5,31.8,67.5,31.8"/></defs><clipPath id="SVGID_82_"><use xlink:href="#SVGID_81_" overflow="visible"/></clipPath><linearGradient id="SVGID_83_" gradientUnits="userSpaceOnUse" x1="0" y1="92.62" x2="1" y2="92.62" gradientTransform="rotate(14.598 48076.985 6182.275) scale(133.3479)"><stop offset="0" stop-color="#00d580"/><stop offset=".34" stop-color="#00d6d7"/><stop offset="1" stop-color="#50c420"/></linearGradient><path clip-path="url(#SVGID_82_)" fill="url(#SVGID_83_)" d="M56.8 70.2L68.1 73.2 78.2 34.4 66.9 31.5z"/></g><g><defs><path id="SVGID_84_" d="M66.8,20.3v8.2c0,0.4,0.3,0.7,0.7,0.7c0.4,0,0.7-0.3,0.7-0.7v-8.2c0-0.4-0.3-0.7-0.7-0.7 C67.1,19.6,66.8,19.9,66.8,20.3"/></defs><clipPath id="SVGID_85_"><use xlink:href="#SVGID_84_" overflow="visible"/></clipPath><linearGradient id="SVGID_86_" gradientUnits="userSpaceOnUse" x1="0" y1="92.62" x2="1" y2="92.62" gradientTransform="rotate(14.597 48192.654 6196.44) scale(133.3619)"><stop offset="0" stop-color="#00d580"/><stop offset=".34" stop-color="#00d6d7"/><stop offset="1" stop-color="#50c420"/></linearGradient><path clip-path="url(#SVGID_85_)" fill="url(#SVGID_86_)" d="M64.5 28.6L68.1 29.6 70.5 20.2 66.9 19.3z"/></g><g><defs><path id="SVGID_87_" d="M13.8,45.8c-0.4,0-0.7,0.3-0.7,0.7c0,0.4,0.3,0.7,0.7,0.7h13.6c0.4,0,0.7-0.3,0.7-0.7 c0-0.4-0.3-0.7-0.7-0.7H13.8z"/></defs><clipPath id="SVGID_88_"><use xlink:href="#SVGID_87_" overflow="visible"/></clipPath><linearGradient id="SVGID_89_" gradientUnits="userSpaceOnUse" x1="0" y1="92.62" x2="1" y2="92.62" gradientTransform="rotate(14.591 48082.202 6179.824) scale(133.3583)"><stop offset="0" stop-color="#00d580"/><stop offset=".34" stop-color="#00d6d7"/><stop offset="1" stop-color="#50c420"/></linearGradient><path clip-path="url(#SVGID_88_)" fill="url(#SVGID_89_)" d="M12.8 47L27.1 50.8 28.4 45.8 14 42.1z"/></g><g><defs><path id="SVGID_90_" d="M23.3,49h-9.6c-0.4,0-0.7,0.3-0.7,0.7c0,0.4,0.3,0.7,0.7,0.7h9.6h0c0.4,0,0.7-0.3,0.7-0.7 C24,49.3,23.7,49,23.3,49C23.3,49,23.3,49,23.3,49"/></defs><clipPath id="SVGID_91_"><use xlink:href="#SVGID_90_" overflow="visible"/></clipPath><linearGradient id="SVGID_92_" gradientUnits="userSpaceOnUse" x1="0" y1="92.62" x2="1" y2="92.62" gradientTransform="rotate(14.597 48049.318 6178.075) scale(133.3619)"><stop offset="0" stop-color="#00d580"/><stop offset=".34" stop-color="#00d6d7"/><stop offset="1" stop-color="#50c420"/></linearGradient><path clip-path="url(#SVGID_91_)" fill="url(#SVGID_92_)" d="M12.8 50.2L23.3 53 24.3 49 13.8 46.3z"/></g><g><defs><path id="SVGID_93_" d="M13.8,52.1c-0.4,0-0.7,0.3-0.7,0.7c0,0.4,0.3,0.7,0.7,0.7h13.6c0.4,0,0.7-0.3,0.7-0.7s-0.3-0.7-0.7-0.7 H13.8z"/></defs><clipPath id="SVGID_94_"><use xlink:href="#SVGID_93_" overflow="visible"/></clipPath><linearGradient id="SVGID_95_" gradientUnits="userSpaceOnUse" x1="0" y1="92.62" x2="1" y2="92.62" gradientTransform="rotate(14.592 48047.657 6176.045) scale(133.3442)"><stop offset="0" stop-color="#00d580"/><stop offset=".34" stop-color="#00d6d7"/><stop offset="1" stop-color="#50c420"/></linearGradient><path clip-path="url(#SVGID_94_)" fill="url(#SVGID_95_)" d="M12.8 53.4L27.1 57.2 28.4 52.2 14 48.5z"/></g><g><defs><path id="SVGID_96_" d="M13.8,55.3c-0.4,0-0.7,0.3-0.7,0.7c0,0.4,0.3,0.7,0.7,0.7h13.6c0.4,0,0.7-0.3,0.7-0.7 c0-0.4-0.3-0.7-0.7-0.7H13.8z"/></defs><clipPath id="SVGID_97_"><use xlink:href="#SVGID_96_" overflow="visible"/></clipPath><linearGradient id="SVGID_98_" gradientUnits="userSpaceOnUse" x1="0" y1="92.62" x2="1" y2="92.62" gradientTransform="rotate(14.598 48016.979 6174.675) scale(133.3479)"><stop offset="0" stop-color="#00d580"/><stop offset=".34" stop-color="#00d6d7"/><stop offset="1" stop-color="#50c420"/></linearGradient><path clip-path="url(#SVGID_97_)" fill="url(#SVGID_98_)" d="M12.8 56.6L27.1 60.3 28.4 55.4 14 51.7z"/></g><g><defs><path id="SVGID_99_" d="M17.9,58.5c-0.4,0-0.7,0.3-0.7,0.7c0,0.4,0.3,0.7,0.7,0.7h9.5c0.4,0,0.7-0.3,0.7-0.7 c0-0.4-0.3-0.7-0.7-0.7H17.9z"/></defs><clipPath id="SVGID_100_"><use xlink:href="#SVGID_99_" overflow="visible"/></clipPath><linearGradient id="SVGID_101_" gradientUnits="userSpaceOnUse" x1="0" y1="92.62" x2="1" y2="92.62" gradientTransform="rotate(14.597 48017.197 6173.986) scale(133.3619)"><stop offset="0" stop-color="#00d580"/><stop offset=".34" stop-color="#00d6d7"/><stop offset="1" stop-color="#50c420"/></linearGradient><path clip-path="url(#SVGID_100_)" fill="url(#SVGID_101_)" d="M16.8 59.8L27.4 62.5 28.4 58.6 17.9 55.9z"/></g><g><defs><path id="SVGID_102_" d="M39.2,51.4c0,0.7,0.6,1.3,1.3,1.3c0.7,0,1.3-0.6,1.3-1.3c0-0.7-0.6-1.3-1.3-1.3 C39.8,50.1,39.2,50.7,39.2,51.4"/></defs><clipPath id="SVGID_103_"><use xlink:href="#SVGID_102_" overflow="visible"/></clipPath><linearGradient id="SVGID_104_" gradientUnits="userSpaceOnUse" x1="0" y1="92.62" x2="1" y2="92.62" gradientTransform="rotate(14.592 48072.571 6179.238) scale(133.3442)"><stop offset="0" stop-color="#00d580"/><stop offset=".34" stop-color="#00d6d7"/><stop offset="1" stop-color="#50c420"/></linearGradient><path clip-path="url(#SVGID_103_)" fill="url(#SVGID_104_)" d="M38.6 52.6L41.7 53.4 42.5 50.3 39.4 49.5z"/></g><g><defs><path id="SVGID_105_" d="M29.5,65.6c0,0.7,0.6,1.3,1.3,1.3c0.7,0,1.3-0.6,1.3-1.3c0-0.7-0.6-1.3-1.3-1.3 C30.1,64.3,29.5,64.9,29.5,65.6"/></defs><clipPath id="SVGID_106_"><use xlink:href="#SVGID_105_" overflow="visible"/></clipPath><linearGradient id="SVGID_107_" gradientUnits="userSpaceOnUse" x1="0" y1="92.62" x2="1" y2="92.62" gradientTransform="rotate(14.597 48001.066 6171.93) scale(133.3619)"><stop offset="0" stop-color="#00d580"/><stop offset=".34" stop-color="#00d6d7"/><stop offset="1" stop-color="#50c420"/></linearGradient><path clip-path="url(#SVGID_106_)" fill="url(#SVGID_107_)" d="M28.9 66.7L32 67.5 32.8 64.5 29.7 63.7z"/></g><g><defs><path id="SVGID_108_" d="M21.9,49.7c0,0.7,0.6,1.3,1.3,1.3c0.7,0,1.3-0.6,1.3-1.3c0-0.7-0.6-1.3-1.3-1.3 C22.5,48.4,21.9,48.9,21.9,49.7"/></defs><clipPath id="SVGID_109_"><use xlink:href="#SVGID_108_" overflow="visible"/></clipPath><linearGradient id="SVGID_110_" gradientUnits="userSpaceOnUse" x1="0" y1="92.62" x2="1" y2="92.62" gradientTransform="rotate(14.591 48072.467 6178.49) scale(133.3583)"><stop offset="0" stop-color="#00d580"/><stop offset=".34" stop-color="#00d6d7"/><stop offset="1" stop-color="#50c420"/></linearGradient><path clip-path="url(#SVGID_109_)" fill="url(#SVGID_110_)" d="M21.2 50.8L24.3 51.6 25.1 48.5 22 47.7z"/></g><g><defs><path id="SVGID_111_" d="M16.4,59.2c0,0.7,0.6,1.3,1.3,1.3s1.3-0.6,1.3-1.3c0-0.7-0.6-1.3-1.3-1.3S16.4,58.5,16.4,59.2"/></defs><clipPath id="SVGID_112_"><use xlink:href="#SVGID_111_" overflow="visible"/></clipPath><linearGradient id="SVGID_113_" gradientUnits="userSpaceOnUse" x1="0" y1="92.62" x2="1" y2="92.62" gradientTransform="rotate(14.592 48020.813 6172.607) scale(133.3442)"><stop offset="0" stop-color="#00d580"/><stop offset=".34" stop-color="#00d6d7"/><stop offset="1" stop-color="#50c420"/></linearGradient><path clip-path="url(#SVGID_112_)" fill="url(#SVGID_113_)" d="M15.8 60.3L18.9 61.1 19.7 58.1 16.6 57.3z"/></g><g><defs><path id="SVGID_114_" d="M19.3,19.7c0,0.7,0.6,1.3,1.3,1.3s1.3-0.6,1.3-1.3c0-0.7-0.6-1.3-1.3-1.3S19.3,19,19.3,19.7"/></defs><clipPath id="SVGID_115_"><use xlink:href="#SVGID_114_" overflow="visible"/></clipPath><linearGradient id="SVGID_116_" gradientUnits="userSpaceOnUse" x1="0" y1="92.62" x2="1" y2="92.62" gradientTransform="rotate(14.598 48153.927 6192.143) scale(133.3479)"><stop offset="0" stop-color="#00d580"/><stop offset=".34" stop-color="#00d6d7"/><stop offset="1" stop-color="#50c420"/></linearGradient><path clip-path="url(#SVGID_115_)" fill="url(#SVGID_116_)" d="M18.7 20.9L21.8 21.7 22.6 18.6 19.5 17.8z"/></g><g><defs><path id="SVGID_117_" d="M5.9,71.3c0,0.7,0.6,1.3,1.3,1.3c0.7,0,1.3-0.6,1.3-1.3c0-0.7-0.6-1.3-1.3-1.3C6.4,70,5.9,70.6,5.9,71.3"/></defs><clipPath id="SVGID_118_"><use xlink:href="#SVGID_117_" overflow="visible"/></clipPath><linearGradient id="SVGID_119_" gradientUnits="userSpaceOnUse" x1="0" y1="92.62" x2="1" y2="92.62" gradientTransform="rotate(14.592 47964.512 6165.411) scale(133.3442)"><stop offset="0" stop-color="#00d580"/><stop offset=".34" stop-color="#00d6d7"/><stop offset="1" stop-color="#50c420"/></linearGradient><path clip-path="url(#SVGID_118_)" fill="url(#SVGID_119_)" d="M5.2 72.5L8.3 73.3 9.1 70.2 6 69.4z"/></g><g><defs><path id="SVGID_120_" d="M2.6,43.9c0,0.7,0.6,1.3,1.3,1.3c0.7,0,1.3-0.6,1.3-1.3c0-0.7-0.6-1.3-1.3-1.3 C3.2,42.6,2.6,43.2,2.6,43.9"/></defs><clipPath id="SVGID_121_"><use xlink:href="#SVGID_120_" overflow="visible"/></clipPath><linearGradient id="SVGID_122_" gradientUnits="userSpaceOnUse" x1="0" y1="92.62" x2="1" y2="92.62" gradientTransform="rotate(14.591 48075.267 6178.89) scale(133.3583)"><stop offset="0" stop-color="#00d580"/><stop offset=".34" stop-color="#00d6d7"/><stop offset="1" stop-color="#50c420"/></linearGradient><path clip-path="url(#SVGID_121_)" fill="url(#SVGID_122_)" d="M2 45L5 45.8 5.8 42.8 2.8 42z"/></g><g><defs><path id="SVGID_123_" d="M28.2,29.8c0,0.7,0.6,1.3,1.3,1.3c0.7,0,1.3-0.6,1.3-1.3c0-0.7-0.6-1.3-1.3-1.3 C28.8,28.5,28.2,29.1,28.2,29.8"/></defs><clipPath id="SVGID_124_"><use xlink:href="#SVGID_123_" overflow="visible"/></clipPath><linearGradient id="SVGID_125_" gradientUnits="userSpaceOnUse" x1="0" y1="92.62" x2="1" y2="92.62" gradientTransform="rotate(14.591 48153.815 6188.892) scale(133.3583)"><stop offset="0" stop-color="#00d580"/><stop offset=".34" stop-color="#00d6d7"/><stop offset="1" stop-color="#50c420"/></linearGradient><path clip-path="url(#SVGID_124_)" fill="url(#SVGID_125_)" d="M27.6 30.9L30.7 31.7 31.5 28.7 28.4 27.9z"/></g><g><defs><path id="SVGID_126_" d="M3.2,44.1v28.1c0,0.4,0.3,0.7,0.7,0.7c0.4,0,0.7-0.3,0.7-0.7V44.1c0-0.4-0.3-0.7-0.7-0.7 C3.5,43.4,3.2,43.7,3.2,44.1"/></defs><clipPath id="SVGID_127_"><use xlink:href="#SVGID_126_" overflow="visible"/></clipPath><linearGradient id="SVGID_128_" gradientUnits="userSpaceOnUse" x1="0" y1="92.62" x2="1" y2="92.62" gradientTransform="rotate(14.598 47992.576 6171.474) scale(133.3479)"><stop offset="0" stop-color="#00d580"/><stop offset=".34" stop-color="#00d6d7"/><stop offset="1" stop-color="#50c420"/></linearGradient><path clip-path="url(#SVGID_127_)" fill="url(#SVGID_128_)" d="M-4 71L4.5 73.2 11.8 45.3 3.3 43.1z"/></g><g><defs><path id="SVGID_129_" d="M9.1,55.6c0,0.7,0.6,1.3,1.3,1.3c0.7,0,1.3-0.6,1.3-1.3c0-0.7-0.6-1.3-1.3-1.3 C9.7,54.3,9.1,54.9,9.1,55.6"/></defs><clipPath id="SVGID_130_"><use xlink:href="#SVGID_129_" overflow="visible"/></clipPath><linearGradient id="SVGID_131_" gradientUnits="userSpaceOnUse" x1="0" y1="92.62" x2="1" y2="92.62" gradientTransform="rotate(14.592 48027.04 6173.413) scale(133.3442)"><stop offset="0" stop-color="#00d580"/><stop offset=".34" stop-color="#00d6d7"/><stop offset="1" stop-color="#50c420"/></linearGradient><path clip-path="url(#SVGID_130_)" fill="url(#SVGID_131_)" d="M8.4 56.8L11.5 57.6 12.3 54.5 9.2 53.7z"/></g><g><defs><path id="SVGID_132_" d="M30.1,66.1v6c0,0.4,0.3,0.7,0.7,0.7c0.4,0,0.7-0.3,0.7-0.7v-6c0-0.4-0.3-0.7-0.7-0.7 C30.4,65.5,30.1,65.8,30.1,66.1"/></defs><clipPath id="SVGID_133_"><use xlink:href="#SVGID_132_" overflow="visible"/></clipPath><linearGradient id="SVGID_134_" gradientUnits="userSpaceOnUse" x1="0" y1="92.62" x2="1" y2="92.62" gradientTransform="rotate(14.591 48006.32 6170.088) scale(133.3583)"><stop offset="0" stop-color="#00d580"/><stop offset=".34" stop-color="#00d6d7"/><stop offset="1" stop-color="#50c420"/></linearGradient><path clip-path="url(#SVGID_133_)" fill="url(#SVGID_134_)" d="M28.3 72.4L31.4 73.2 33.3 65.9 30.2 65.1z"/></g><g><defs><path id="SVGID_135_" d="M53.1,38.2c0,0.7,0.6,1.3,1.3,1.3c0.7,0,1.3-0.6,1.3-1.3c0-0.7-0.6-1.3-1.3-1.3 C53.7,36.9,53.1,37.5,53.1,38.2"/></defs><clipPath id="SVGID_136_"><use xlink:href="#SVGID_135_" overflow="visible"/></clipPath><linearGradient id="SVGID_137_" gradientUnits="userSpaceOnUse" x1="0" y1="92.62" x2="1" y2="92.62" gradientTransform="rotate(14.598 48117.656 6187.61) scale(133.3479)"><stop offset="0" stop-color="#00d580"/><stop offset=".34" stop-color="#00d6d7"/><stop offset="1" stop-color="#50c420"/></linearGradient><path clip-path="url(#SVGID_136_)" fill="url(#SVGID_137_)" d="M52.5 39.3L55.6 40.1 56.4 37 53.3 36.2z"/></g><g><defs><path id="SVGID_138_" d="M80,54.1c0,0.7,0.6,1.3,1.3,1.3c0.7,0,1.3-0.6,1.3-1.3c0-0.7-0.6-1.3-1.3-1.3C80.6,52.8,80,53.4,80,54.1"/></defs><clipPath id="SVGID_139_"><use xlink:href="#SVGID_138_" overflow="visible"/></clipPath><linearGradient id="SVGID_140_" gradientUnits="userSpaceOnUse" x1="0" y1="92.62" x2="1" y2="92.62" gradientTransform="rotate(14.598 48084.053 6183.342) scale(133.3479)"><stop offset="0" stop-color="#00d580"/><stop offset=".34" stop-color="#00d6d7"/><stop offset="1" stop-color="#50c420"/></linearGradient><path clip-path="url(#SVGID_139_)" fill="url(#SVGID_140_)" d="M79.4 55.2L82.5 56 83.3 52.9 80.2 52.1z"/></g><g><defs><path id="SVGID_141_" d="M66.2,32.5c0,0.7,0.6,1.3,1.3,1.3c0.7,0,1.3-0.6,1.3-1.3c0-0.7-0.6-1.3-1.3-1.3 C66.8,31.2,66.2,31.8,66.2,32.5"/></defs><clipPath id="SVGID_142_"><use xlink:href="#SVGID_141_" overflow="visible"/></clipPath><linearGradient id="SVGID_143_" gradientUnits="userSpaceOnUse" x1="0" y1="92.62" x2="1" y2="92.62" gradientTransform="rotate(14.592 48170.664 6191.82) scale(133.3442)"><stop offset="0" stop-color="#00d580"/><stop offset=".34" stop-color="#00d6d7"/><stop offset="1" stop-color="#50c420"/></linearGradient><path clip-path="url(#SVGID_142_)" fill="url(#SVGID_143_)" d="M65.6 33.6L68.6 34.4 69.4 31.4 66.4 30.6z"/></g><g><defs><path id="SVGID_144_" d="M63,53.7c0,0.7,0.6,1.3,1.3,1.3c0.7,0,1.3-0.6,1.3-1.3c0-0.7-0.6-1.3-1.3-1.3C63.6,52.4,63,53,63,53.7"/></defs><clipPath id="SVGID_145_"><use xlink:href="#SVGID_144_" overflow="visible"/></clipPath><linearGradient id="SVGID_146_" gradientUnits="userSpaceOnUse" x1="0" y1="92.62" x2="1" y2="92.62" gradientTransform="rotate(14.591 48097.805 6181.69) scale(133.3583)"><stop offset="0" stop-color="#00d580"/><stop offset=".34" stop-color="#00d6d7"/><stop offset="1" stop-color="#50c420"/></linearGradient><path clip-path="url(#SVGID_145_)" fill="url(#SVGID_146_)" d="M62.3 54.8L65.4 55.6 66.2 52.5 63.1 51.7z"/></g><g><defs><path id="SVGID_147_" d="M59.7,69.6c0,0.7,0.6,1.3,1.3,1.3s1.3-0.6,1.3-1.3s-0.6-1.3-1.3-1.3S59.7,68.9,59.7,69.6"/></defs><clipPath id="SVGID_148_"><use xlink:href="#SVGID_147_" overflow="visible"/></clipPath><linearGradient id="SVGID_149_" gradientUnits="userSpaceOnUse" x1="0" y1="92.62" x2="1" y2="92.62" gradientTransform="rotate(14.592 48023.88 6173.011) scale(133.3442)"><stop offset="0" stop-color="#00d580"/><stop offset=".34" stop-color="#00d6d7"/><stop offset="1" stop-color="#50c420"/></linearGradient><path clip-path="url(#SVGID_148_)" fill="url(#SVGID_149_)" d="M59.1 70.8L62.1 71.6 62.9 68.5 59.9 67.7z"/></g><g><defs><path id="SVGID_150_" d="M95.3,59c0,0.7,0.6,1.3,1.3,1.3c0.7,0,1.3-0.6,1.3-1.3c0-0.7-0.6-1.3-1.3-1.3 C95.9,57.7,95.3,58.3,95.3,59"/></defs><clipPath id="SVGID_151_"><use xlink:href="#SVGID_150_" overflow="visible"/></clipPath><linearGradient id="SVGID_152_" gradientUnits="userSpaceOnUse" x1="0" y1="92.62" x2="1" y2="92.62" gradientTransform="rotate(14.598 48080.319 6182.809) scale(133.3479)"><stop offset="0" stop-color="#00d580"/><stop offset=".34" stop-color="#00d6d7"/><stop offset="1" stop-color="#50c420"/></linearGradient><path clip-path="url(#SVGID_151_)" fill="url(#SVGID_152_)" d="M94.7 60.2L97.7 61 98.5 57.9 95.5 57.1z"/></g><g><defs><path id="SVGID_153_" d="M110.3,40.9c0,0.7,0.6,1.3,1.3,1.3c0.7,0,1.3-0.6,1.3-1.3s-0.6-1.3-1.3-1.3 C110.9,39.6,110.3,40.2,110.3,40.9"/></defs><clipPath id="SVGID_154_"><use xlink:href="#SVGID_153_" overflow="visible"/></clipPath><linearGradient id="SVGID_155_" gradientUnits="userSpaceOnUse" x1="0" y1="92.62" x2="1" y2="92.62" gradientTransform="rotate(14.592 48182.359 6193.312) scale(133.3442)"><stop offset="0" stop-color="#00d580"/><stop offset=".34" stop-color="#00d6d7"/><stop offset="1" stop-color="#50c420"/></linearGradient><path clip-path="url(#SVGID_154_)" fill="url(#SVGID_155_)" d="M109.7 42L112.7 42.8 113.5 39.7 110.5 38.9z"/></g><g><defs><path id="SVGID_156_" d="M113.6,54.8c0,0.7,0.6,1.3,1.3,1.3c0.7,0,1.3-0.6,1.3-1.3c0-0.7-0.6-1.3-1.3-1.3 C114.2,53.5,113.6,54.1,113.6,54.8"/></defs><clipPath id="SVGID_157_"><use xlink:href="#SVGID_156_" overflow="visible"/></clipPath><linearGradient id="SVGID_158_" gradientUnits="userSpaceOnUse" x1="0" y1="92.62" x2="1" y2="92.62" gradientTransform="rotate(14.597 48124.513 6187.738) scale(133.3619)"><stop offset="0" stop-color="#00d580"/><stop offset=".34" stop-color="#00d6d7"/><stop offset="1" stop-color="#50c420"/></linearGradient><path clip-path="url(#SVGID_157_)" fill="url(#SVGID_158_)" d="M112.9 55.9L116 56.7 116.8 53.7 113.7 52.9z"/></g><g><defs><path id="SVGID_159_" d="M116.8,21.2c0,0.7,0.6,1.3,1.3,1.3s1.3-0.6,1.3-1.3s-0.6-1.3-1.3-1.3S116.8,20.5,116.8,21.2"/></defs><clipPath id="SVGID_160_"><use xlink:href="#SVGID_159_" overflow="visible"/></clipPath><linearGradient id="SVGID_161_" gradientUnits="userSpaceOnUse" x1="0" y1="92.62" x2="1" y2="92.62" gradientTransform="rotate(14.592 48263.05 6203.64) scale(133.3442)"><stop offset="0" stop-color="#00d580"/><stop offset=".34" stop-color="#00d6d7"/><stop offset="1" stop-color="#50c420"/></linearGradient><path clip-path="url(#SVGID_160_)" fill="url(#SVGID_161_)" d="M116.1 22.4L119.2 23.2 120 20.1 116.9 19.3z"/></g><g><defs><path id="SVGID_162_" d="M99.9,70.6c0,0.7,0.6,1.3,1.3,1.3c0.7,0,1.3-0.6,1.3-1.3c0-0.7-0.6-1.3-1.3-1.3 C100.5,69.3,99.9,69.9,99.9,70.6"/></defs><clipPath id="SVGID_163_"><use xlink:href="#SVGID_162_" overflow="visible"/></clipPath><linearGradient id="SVGID_164_" gradientUnits="userSpaceOnUse" x1="0" y1="92.62" x2="1" y2="92.62" gradientTransform="rotate(14.597 48051.465 6178.385) scale(133.3619)"><stop offset="0" stop-color="#00d580"/><stop offset=".34" stop-color="#00d6d7"/><stop offset="1" stop-color="#50c420"/></linearGradient><path clip-path="url(#SVGID_163_)" fill="url(#SVGID_164_)" d="M99.3 71.7L102.3 72.5 103.1 69.5 100.1 68.7z"/></g><g><defs><path id="SVGID_165_" d="M118.8,60.7c0,0.7,0.6,1.3,1.3,1.3c0.7,0,1.3-0.6,1.3-1.3c0-0.7-0.6-1.3-1.3-1.3 C119.4,59.4,118.8,59.9,118.8,60.7"/></defs><clipPath id="SVGID_166_"><use xlink:href="#SVGID_165_" overflow="visible"/></clipPath><linearGradient id="SVGID_167_" gradientUnits="userSpaceOnUse" x1="0" y1="92.62" x2="1" y2="92.62" gradientTransform="rotate(14.592 48115.957 6184.812) scale(133.3442)"><stop offset="0" stop-color="#00d580"/><stop offset=".34" stop-color="#00d6d7"/><stop offset="1" stop-color="#50c420"/></linearGradient><path clip-path="url(#SVGID_166_)" fill="url(#SVGID_167_)" d="M118.2 61.8L121.2 62.6 122 59.5 119 58.7z"/></g></svg>