<svg width="171" height="56" viewBox="0 0 171 56" fill="none" xmlns="http://www.w3.org/2000/svg">
    <path fill-rule="evenodd" clip-rule="evenodd" d="M116.483 0H136.051L164.299 46.0502H144.731L137.778 34.7145L126.561 34.7238C129.794 33.4294 132.077 30.2781 132.077 26.5952C132.077 22.4852 129.235 19.0374 125.401 18.0932L127.572 18.0774L116.483 0ZM120.018 34.7295L98.6894 34.7474L101.174 30.6246L115.474 30.6257C116.441 32.4805 118.055 33.9472 120.018 34.7295ZM114.712 28.5638L102.404 28.5845L104.873 24.4872L114.749 24.4754C114.579 25.1543 114.489 25.8643 114.489 26.5952C114.489 27.272 114.566 27.931 114.712 28.5638ZM115.59 22.3499H106.162L108.654 18.2153L121.04 18.125C118.699 18.7384 116.739 20.289 115.59 22.3499ZM145.982 48.1839H165.771L170.258 55.6138H150.469L145.982 48.1839ZM90.6816 48.0554H94.8012L97.7069 55.7795L94.2863 55.7926L93.7313 54.0573L91.8542 54.0639L91.1965 55.8046L88.1436 55.8164L90.6816 48.0554ZM101.909 47.971C99.447 47.9951 97.7071 49.6315 97.7071 51.9067C97.7071 54.1819 99.4281 55.8869 101.891 55.8591C103.403 55.842 103.217 55.866 104.257 55.6647C104.268 53.8727 104.257 55.6647 104.268 53.8727C101.42 54.2243 100.56 53.2094 100.576 51.8697C100.59 50.7093 101.424 49.7242 104.255 50.1971C104.241 48.1492 104.255 50.1971 104.241 48.1492C103.418 48.0144 103.42 47.9564 101.909 47.971ZM108.277 47.9858C110.739 48.0098 112.479 49.6461 112.479 51.9213C112.479 54.1965 110.758 55.9016 108.295 55.8738C106.783 55.8567 106.969 55.8807 105.929 55.6794C105.918 53.8873 105.929 55.6794 105.918 53.8873C107.955 54.0582 109.037 53.6416 109.409 52.813C107.118 52.8241 109.409 52.813 107.072 52.8244C107.067 51.1017 107.074 51.47 107.072 51.2681C109.352 51.2598 107.072 51.2681 109.423 51.2596C109.021 50.5599 107.981 49.8692 105.931 50.2118C105.945 48.1639 105.931 50.2118 105.945 48.1639C106.768 48.0291 106.766 47.971 108.277 47.9858ZM92.8307 50.3161L92.1886 52.2358H93.4731L92.8307 50.3161ZM119.866 48.0554H123.985L126.891 55.7795L123.47 55.7926L122.915 54.0573L121.038 54.0639L120.381 55.8046L117.328 55.8164L119.866 48.0554ZM122.015 50.3161L121.373 52.2358H122.657L122.015 50.3161ZM135.847 48.1223H142.762C142.762 48.72 142.762 49.3176 142.762 49.9153C138.729 49.9157 142.762 49.9153 138.729 49.9157C138.729 50.9734 138.729 49.9157 138.729 50.9734C142.762 50.9736 138.729 50.9734 142.762 50.9736V52.8646L138.729 52.8573L138.729 53.9376L142.762 53.9367V55.8462H135.847V48.1223ZM115.458 53.208C116.075 53.208 116.576 52.7074 116.576 52.0899C116.576 51.4725 116.075 50.9718 115.458 50.9718C114.84 50.9718 114.34 51.4725 114.34 52.0899C114.34 52.7074 114.84 53.208 115.458 53.208ZM134.322 48.1105C130.291 47.5367 129.465 48.0008 129.12 48.1287C128.898 48.211 127.979 48.8209 127.738 49.5229C127.498 50.2249 127.576 50.8748 127.738 51.4042C127.933 52.0379 129.807 52.785 131.031 52.8177C132.255 52.8504 131.975 54.1949 131.078 54.2261C129.981 54.2641 129.368 54.2614 127.738 53.6037C127.727 54.1745 127.717 54.7452 127.705 55.316C130.598 56.5776 133.568 55.9374 134.33 54.6649C134.676 54.0864 134.648 53.1491 134.322 52.2923C134.19 51.9433 133.633 51.323 132.91 51.1015C132.158 50.8712 131.45 51.0361 130.797 50.8394C130.326 50.625 130.361 50.026 130.675 49.8149C131.596 49.1961 134.322 49.9437 134.322 49.9437C134.322 49.4651 134.322 48.7215 134.322 48.1105Z" fill="#003594"/>
    <path d="M32.5803 31.9923C30.4036 34.3995 26.6989 34.5787 24.3003 32.402C21.9017 30.2253 21.7139 26.5036 23.882 24.0964C26.0587 21.6893 29.7634 21.51 32.162 23.6867C34.5692 25.8634 34.7485 29.5851 32.5803 31.9923Z" fill="url(#paint0_radial)"/>
    <path d="M29.7632 7.93762C30.2583 8.42418 30.7107 8.91927 31.1205 9.40582C33.4764 12.2313 34.5861 15.0055 34.5861 15.0055C36.0885 15.2872 37.4969 15.364 38.8115 15.2957C38.8968 15.2872 38.9737 15.2872 39.059 15.2872C39.1359 15.2786 39.2127 15.2701 39.2895 15.2616C42.1918 14.997 45.9647 13.8873 49.4048 10.4302C49.5243 10.3107 49.6438 10.1826 49.7633 10.0631C49.234 9.4229 48.6792 8.79977 48.0817 8.20225C38.0689 -1.77642 22.4478 -2.64711 11.4448 5.57314C20.0663 1.39899 26.05 4.28418 29.7632 7.93762Z" fill="url(#paint1_linear)"/>
    <path d="M9.88291 36.4481C10.0536 35.7823 10.2585 35.1421 10.4804 34.5361C11.7523 31.079 13.6046 28.7401 13.6046 28.7401C13.0925 27.2975 12.4608 26.0427 11.7438 24.9415C11.7011 24.8732 11.6584 24.8049 11.6072 24.7281C11.5645 24.6684 11.5218 24.6086 11.4706 24.5403C9.789 22.1588 6.9465 19.4528 2.22605 18.1895C2.06387 18.1468 1.89313 18.1041 1.73094 18.07C1.44925 18.8468 1.1761 19.6406 0.954159 20.4601C-2.68221 34.1178 4.37713 48.0914 16.9935 53.5032C9.06344 48.1084 8.57689 41.493 9.88291 36.4481Z" fill="url(#paint2_linear)"/>
    <path d="M44.582 39.4357C43.9162 39.6235 43.2589 39.7687 42.6272 39.8796C38.9994 40.5113 36.0459 40.0759 36.0459 40.0759C35.0472 41.2369 34.2789 42.4234 33.6814 43.5843C33.6473 43.6611 33.6046 43.7294 33.5705 43.8062C33.5363 43.8745 33.5107 43.9428 33.4766 44.0111C32.2474 46.6573 31.334 50.4729 32.5973 55.1848C32.64 55.347 32.6913 55.5092 32.7425 55.6799C33.5619 55.5348 34.3814 55.3726 35.1923 55.1592C48.8415 51.4801 57.4117 38.3858 55.7813 24.7451C55.0899 34.3141 49.6012 38.0529 44.582 39.4357Z" fill="url(#paint3_linear)"/>
    <path d="M11.4367 5.58164C11.4367 5.58164 5.34192 9.39726 2.15796 17.0541C2.99449 17.1992 11.4879 18.915 14.6548 28.3559C15.4316 27.8608 17.8046 25.9829 19.4008 20.81C21.33 14.5531 25.0005 9.94357 29.7551 7.93759C29.7636 7.93759 23.7372 -0.649697 11.4367 5.58164Z" fill="url(#paint4_linear)"/>
    <path d="M30.7452 50.6009C30.7452 47.4341 31.6244 43.2343 35.1413 39.2821L35.1839 39.2223C34.612 38.6077 32.5975 37.0969 27.4247 38.2748C21.0482 39.7345 14.0059 39.5638 9.89155 36.4481C9.89155 36.4481 5.46986 45.9573 17.0106 53.4947C17.0106 53.4947 23.353 56.8579 31.5647 55.7909C31.411 55.3811 30.7452 53.3837 30.7452 50.6009Z" fill="url(#paint5_linear)"/>
    <path d="M50.4889 10.985C49.584 12.0861 45.2648 16.6103 38.0689 16.6103C36.908 16.6103 35.6788 16.4908 34.3813 16.2261L34.3215 16.2091C34.0825 17.0797 33.8862 19.5467 37.4031 23.3367C41.8504 28.134 45.2221 34.3141 44.5905 39.4357C44.5905 39.4357 55.0301 38.5138 55.7898 24.7451C55.7812 24.7537 55.5251 17.5663 50.4889 10.985Z" fill="url(#paint6_linear)"/>
    <defs>
        <radialGradient id="paint0_radial" cx="0" cy="0" r="1" gradientUnits="userSpaceOnUse" gradientTransform="translate(26.3597 24.7686) rotate(0.0554296) scale(8.24867 8.27261)">
            <stop stop-color="#4495D1"/>
            <stop offset="1" stop-color="#15256D"/>
        </radialGradient>
        <linearGradient id="paint1_linear" x1="20.1832" y1="1.8856" x2="44.8593" y2="11.8223" gradientUnits="userSpaceOnUse">
            <stop stop-color="#4495D1"/>
            <stop offset="1" stop-color="#15256D"/>
        </linearGradient>
        <linearGradient id="paint2_linear" x1="9.433" y1="47.7696" x2="5.70022" y2="21.4317" gradientUnits="userSpaceOnUse">
            <stop stop-color="#4495D1"/>
            <stop offset="1" stop-color="#15256D"/>
        </linearGradient>
        <linearGradient id="paint3_linear" x1="54.611" y1="34.1697" x2="33.6679" y2="50.5708" gradientUnits="userSpaceOnUse">
            <stop stop-color="#4495D1"/>
            <stop offset="1" stop-color="#15256D"/>
        </linearGradient>
        <linearGradient id="paint4_linear" x1="10.3125" y1="20.7747" x2="21.4044" y2="3.75432" gradientUnits="userSpaceOnUse">
            <stop stop-color="#4495D1"/>
            <stop offset="1" stop-color="#15256D"/>
        </linearGradient>
        <linearGradient id="paint5_linear" x1="31.2971" y1="45.0485" x2="11.3994" y2="47.0768" gradientUnits="userSpaceOnUse">
            <stop stop-color="#4495D1"/>
            <stop offset="1" stop-color="#15256D"/>
        </linearGradient>
        <linearGradient id="paint6_linear" x1="44.1078" y1="16.2663" x2="48.1647" y2="36.7435" gradientUnits="userSpaceOnUse">
            <stop stop-color="#4495D1"/>
            <stop offset="1" stop-color="#15256D"/>
        </linearGradient>
    </defs>
</svg>
